<?xml version="1.0" standalone="yes"?>
<svg width="239" height="238">
<path style="fill:#ffffff; stroke:none;" d="M0 0L0 238L239 238L239 0L0 0z"/>
<path style="fill:#979797; stroke:none;" d="M105.667 1.33333L106.333 1.66667L105.667 1.33333z"/>
<path style="fill:#5a5a5a; stroke:none;" d="M107.667 1.33333L108.333 1.66667L107.667 1.33333z"/>
<path style="fill:#000000; stroke:none;" d="M109 1.42516C87.2072 4.39165 66.7127 10.9805 49 24.5031C-26.8534 82.4125 -2.95822 210.329 92 232.011C105.179 235.02 119.481 236.331 133 234.715C151.546 232.496 169.276 226.43 185 216.302C232.773 185.528 250.994 119.328 226.68 68C211.589 36.1437 182.882 13.2896 149 4.62962C136.265 1.37469 122.099 -0.357956 109 1.42516z"/>
<path style="fill:#5e5e5e; stroke:none;" d="M131.667 1.33333L132.333 1.66667L131.667 1.33333z"/>
<path style="fill:#aaaaaa; stroke:none;" d="M133.667 1.33333L134.333 1.66667L133.667 1.33333z"/>
<path style="fill:#6e6e6e; stroke:none;" d="M99 2L99 3L102 3L99 2z"/>
<path style="fill:#515151; stroke:none;" d="M138.667 2.33333L139.333 2.66667L138.667 2.33333z"/>
<path style="fill:#c1c1c1; stroke:none;" d="M92 3L92 4L95 4L92 3z"/>
<path style="fill:#8c8c8c; stroke:none;" d="M144.667 3.33333L145.333 3.66667L144.667 3.33333M89.6667 4.33333L90.3333 4.66667L89.6667 4.33333z"/>
<path style="fill:#767676; stroke:none;" d="M148.667 4.33333L149.333 4.66667L148.667 4.33333z"/>
<path style="fill:#5e5e5e; stroke:none;" d="M86 5L86 6L89 6L86 5z"/>
<path style="fill:#7c7c7c; stroke:none;" d="M152.667 5.33333L153.333 5.66667L152.667 5.33333z"/>
<path style="fill:#424242; stroke:none;" d="M83.6667 6.33333L84.3333 6.66667L83.6667 6.33333z"/>
<path style="fill:#636363; stroke:none;" d="M155 6L155 7L158 7L155 6z"/>
<path style="fill:#363636; stroke:none;" d="M80.6667 7.33333L81.3333 7.66667L80.6667 7.33333z"/>
<path style="fill:#626262; stroke:none;" d="M159 7L160 8L159 7z"/>
<path style="fill:#a9a9a9; stroke:none;" d="M77 8L78 9L77 8z"/>
<path style="fill:#7e7e7e; stroke:none;" d="M162 8L163 9L162 8z"/>
<path style="fill:#808080; stroke:none;" d="M75 9L76 10L75 9z"/>
<path style="fill:#989898; stroke:none;" d="M169 11L170 12L169 11z"/>
<path style="fill:#404040; stroke:none;" d="M113 12L113 13L127 13L113 12z"/>
<path style="fill:#878787; stroke:none;" d="M171 12L172 13L171 12z"/>
<path style="fill:#818181; stroke:none;" d="M105 13L105 14L108 14L105 13z"/>
<path style="fill:#ffffff; stroke:none;" d="M108 13.4282C91.2373 15.8286 75.1249 21.1548 61 30.6713C49.4982 38.4205 39.6587 48.4452 32.0039 60C-17.1322 134.169 46.9767 235.182 135 222.572C150.161 220.4 165.221 215.126 178 206.644C253.013 156.853 233.783 33.6708 143 15.3997C131.655 13.1163 119.552 11.7741 108 13.4282z"/>
<path style="fill:#969696; stroke:none;" d="M132.667 13.3333L133.333 13.6667L132.667 13.3333z"/>
<path style="fill:#909090; stroke:none;" d="M173 13L174 14L173 13z"/>
<path style="fill:#c1c1c1; stroke:none;" d="M100.667 14.3333L101.333 14.6667L100.667 14.3333z"/>
<path style="fill:#a7a7a7; stroke:none;" d="M138.667 14.3333L139.333 14.6667L138.667 14.3333z"/>
<path style="fill:#959595; stroke:none;" d="M175 14L176 15L175 14z"/>
<path style="fill:#616161; stroke:none;" d="M63 15L64 16L63 15z"/>
<path style="fill:#3d3d3d; stroke:none;" d="M93 15L93 16L96 16L93 15z"/>
<path style="fill:#8c8c8c; stroke:none;" d="M143.667 15.3333L144.333 15.6667L143.667 15.3333z"/>
<path style="fill:#818181; stroke:none;" d="M61 16L62 17L61 16z"/>
<path style="fill:#6e6e6e; stroke:none;" d="M90.6667 16.3333L91.3333 16.6667L90.6667 16.3333z"/>
<path style="fill:#525252; stroke:none;" d="M148.667 16.3333L149.333 16.6667L148.667 16.3333z"/>
<path style="fill:#999999; stroke:none;" d="M59 17L60 18L59 17z"/>
<path style="fill:#929292; stroke:none;" d="M87 17L87 18L90 18L87 17z"/>
<path style="fill:#666666; stroke:none;" d="M151.667 17.3333L152.333 17.6667L151.667 17.3333z"/>
<path style="fill:#6f6f6f; stroke:none;" d="M180 17L181 18L180 17z"/>
<path style="fill:#9a9a9a; stroke:none;" d="M84 18L84 19L87 19L84 18z"/>
<path style="fill:#656565; stroke:none;" d="M154.667 18.3333L155.333 18.6667L154.667 18.3333z"/>
<path style="fill:#929292; stroke:none;" d="M182 18L183 19L182 18z"/>
<path style="fill:#737373; stroke:none;" d="M56 19L57 20L56 19z"/>
<path style="fill:#c9c9c9; stroke:none;" d="M82.6667 19.3333L83.3333 19.6667L82.6667 19.3333z"/>
<path style="fill:#a8a8a8; stroke:none;" d="M157 19L158 20L157 19z"/>
<path style="fill:#868686; stroke:none;" d="M160 20L161 21L160 20z"/>
<path style="fill:#818181; stroke:none;" d="M185 20L186 21L185 20z"/>
<path style="fill:#6d6d6d; stroke:none;" d="M53 21L54 22L53 21M77 21L78 22L77 21z"/>
<path style="fill:#878787; stroke:none;" d="M75 22L76 23L75 22z"/>
<path style="fill:#a7a7a7; stroke:none;" d="M188 22L189 23L188 22z"/>
<path style="fill:#787878; stroke:none;" d="M73 23L74 24L73 23z"/>
<path style="fill:#777777; stroke:none;" d="M71 24L72 25L71 24z"/>
<path style="fill:#606060; stroke:none;" d="M69 25L70 26L69 25z"/>
<path style="fill:#9f9f9f; stroke:none;" d="M170 25L171 26L170 25z"/>
<path style="fill:#a7a7a7; stroke:none;" d="M192 25L193 26L192 25z"/>
<path style="fill:#757575; stroke:none;" d="M172 26L173 27L172 26z"/>
<path style="fill:#747474; stroke:none;" d="M193 26L194 27L193 26z"/>
<path style="fill:#878787; stroke:none;" d="M45 27L46 28L45 27z"/>
<path style="fill:#656565; stroke:none;" d="M44 28L45 29L44 28z"/>
<path style="fill:#707070; stroke:none;" d="M64 28L65 29L64 28z"/>
<path style="fill:#a6a6a6; stroke:none;" d="M175 28L176 29L175 28z"/>
<path style="fill:#6f6f6f; stroke:none;" d="M177 29L178 30L177 29z"/>
<path style="fill:#929292; stroke:none;" d="M61 30L62 31L61 30z"/>
<path style="fill:#9e9e9e; stroke:none;" d="M198 30L199 31L198 30z"/>
<path style="fill:#757575; stroke:none;" d="M180 31L181 32L180 31z"/>
<path style="fill:#8c8c8c; stroke:none;" d="M199 31L200 32L199 31z"/>
<path style="fill:#7d7d7d; stroke:none;" d="M58 32L59 33L58 32z"/>
<path style="fill:#5d5d5d; stroke:none;" d="M200 32L201 33L200 32z"/>
<path style="fill:#606060; stroke:none;" d="M201 33L202 34L201 33z"/>
<path style="fill:#858585; stroke:none;" d="M184 34L185 35L184 34z"/>
<path style="fill:#5e5e5e; stroke:none;" d="M202 34L203 35L202 34z"/>
<path style="fill:#6a6a6a; stroke:none;" d="M54 35L55 36L54 35z"/>
<path style="fill:#606060; stroke:none;" d="M203 35L204 36L203 35z"/>
<path style="fill:#9b9b9b; stroke:none;" d="M53 36L54 37L53 36z"/>
<path style="fill:#5f5f5f; stroke:none;" d="M204 36L205 37L204 36z"/>
<path style="fill:#636363; stroke:none;" d="M205 37L206 38L205 37z"/>
<path style="fill:#616161; stroke:none;" d="M189 38L190 39L189 38z"/>
<path style="fill:#7b7b7b; stroke:none;" d="M206 38L207 39L206 38z"/>
<path style="fill:#686868; stroke:none;" d="M190 39L191 40L190 39z"/>
<path style="fill:#9f9f9f; stroke:none;" d="M207 39L208 40L207 39z"/>
<path style="fill:#a7a7a7; stroke:none;" d="M191 40L192 41L191 40z"/>
<path style="fill:#a3a3a3; stroke:none;" d="M192 41L193 42L192 41z"/>
<path style="fill:#656565; stroke:none;" d="M30 42L31 43L30 42z"/>
<path style="fill:#5a5a5a; stroke:none;" d="M46 42L47 43L46 42z"/>
<path style="fill:#a1a1a1; stroke:none;" d="M193 42L194 43L193 42z"/>
<path style="fill:#878787; stroke:none;" d="M29 43L30 44L29 43z"/>
<path style="fill:#767676; stroke:none;" d="M45 43L46 44L45 43z"/>
<path style="fill:#a1a1a1; stroke:none;" d="M194 43L195 44L194 43z"/>
<path style="fill:#5a5a5a; stroke:none;" d="M44 44L45 45L44 44z"/>
<path style="fill:#a3a3a3; stroke:none;" d="M195 44L196 45L195 44z"/>
<path style="fill:#a6a6a6; stroke:none;" d="M196 45L197 46L196 45z"/>
<path style="fill:#848484; stroke:none;" d="M212 45L213 46L212 45z"/>
<path style="fill:#8a8a8a; stroke:none;" d="M198 47L199 48L198 47z"/>
<path style="fill:#5b5b5b; stroke:none;" d="M199 48L200 49L199 48z"/>
<path style="fill:#717171; stroke:none;" d="M215 49L216 50L215 49z"/>
<path style="fill:#6d6d6d; stroke:none;" d="M23 51L24 52L23 51z"/>
<path style="fill:#9b9b9b; stroke:none;" d="M38 51L39 52L38 51z"/>
<path style="fill:#6a6a6a; stroke:none;" d="M37 52L38 53L37 52z"/>
<path style="fill:#5e5e5e; stroke:none;" d="M217 52L218 53L217 52z"/>
<path style="fill:#a0a0a0; stroke:none;" d="M203 53L204 54L203 53z"/>
<path style="fill:#737373; stroke:none;" d="M21 54L22 55L21 54z"/>
<path style="fill:#616161; stroke:none;" d="M204 54L205 55L204 54z"/>
<path style="fill:#828282; stroke:none;" d="M219 55L220 56L219 55z"/>
<path style="fill:#7d7d7d; stroke:none;" d="M34 56L35 57L34 56z"/>
<path style="fill:#999999; stroke:none;" d="M19 57L20 58L19 57z"/>
<path style="fill:#8a8a8a; stroke:none;" d="M206 57L207 58L206 57z"/>
<path style="fill:#818181; stroke:none;" d="M18 59L19 60L18 59z"/>
<path style="fill:#929292; stroke:none;" d="M32 59L33 60L32 59z"/>
<path style="fill:#777777; stroke:none;" d="M208 60L209 61L208 60z"/>
<path style="fill:#979797; stroke:none;" d="M222 60L223 61L222 60z"/>
<path style="fill:#626262; stroke:none;" d="M17 61L18 62L17 61z"/>
<path style="fill:#707070; stroke:none;" d="M30 62L31 63L30 62z"/>
<path style="fill:#717171; stroke:none;" d="M223 62L224 63L223 62z"/>
<path style="fill:#676767; stroke:none;" d="M210 63L211 64L210 63z"/>
<path style="fill:#454545; stroke:none;" d="M85 65L85 66L156 66L134 65L85 65z"/>
<path style="fill:#707070; stroke:none;" d="M83 66L84 67L83 66z"/>
<path style="fill:#000000; stroke:none;" d="M79 117L79 163C79 167.767 77.3553 176.464 80.179 180.566C82.9856 184.644 91.7492 183 96 183L143 183C147.458 183 158.116 184.962 160.972 180.682C163.689 176.61 162 167.719 162 163L162 117C176.825 125.211 178.91 115.459 185.86 103C188.521 98.2314 194.44 90.6878 190.396 85.213C186.503 79.944 176.633 76.801 171 73.5787C151.943 62.6779 130.441 66 109 66C96.2428 66 85.4298 64.9672 74 71.4244C67.5464 75.0703 53.7051 79.5764 50.0316 86.1852C46.1135 93.2341 58.0291 107.811 61.2585 113.999C62.6465 116.659 64.1846 120.072 67.1852 121.238C71.38 122.87 75.5987 118.926 79 117z"/>
<path style="fill:#606060; stroke:none;" d="M27 67L28 68L27 67z"/>
<path style="fill:#818181; stroke:none;" d="M81 67L82 68L81 67z"/>
<path style="fill:#666666; stroke:none;" d="M159 67L160 68L159 67z"/>
<path style="fill:#8d8d8d; stroke:none;" d="M79 68L80 69L79 68z"/>
<path style="fill:#6d6d6d; stroke:none;" d="M161 68L162 69L161 68z"/>
<path style="fill:#777777; stroke:none;" d="M26 69L27 70L26 69z"/>
<path style="fill:#a9a9a9; stroke:none;" d="M77 69L78 70L77 69z"/>
<path style="fill:#888888; stroke:none;" d="M163 69L164 70L163 69z"/>
<path style="fill:#5d5d5d; stroke:none;" d="M214 70L215 71L214 70z"/>
<path style="fill:#787878; stroke:none;" d="M25 71L26 72L25 71z"/>
<path style="fill:#727272; stroke:none;" d="M72 72L73 73L72 72z"/>
<path style="fill:#696969; stroke:none;" d="M215 72L216 73L215 72z"/>
<path style="fill:#878787; stroke:none;" d="M228 72L229 73L228 72z"/>
<path style="fill:#808080; stroke:none;" d="M11 73L12 74L11 73z"/>
<path style="fill:#878787; stroke:none;" d="M24 73L25 74L24 73z"/>
<path style="fill:#a0a0a0; stroke:none;" d="M70 73L71 74L70 73z"/>
<path style="fill:#676767; stroke:none;" d="M170 73L171 74L170 73z"/>
<path style="fill:#9b9b9b; stroke:none;" d="M172 74L173 75L172 74z"/>
<path style="fill:#696969; stroke:none;" d="M216 74L217 75L216 74z"/>
<path style="fill:#a9a9a9; stroke:none;" d="M10 75L11 76L10 75z"/>
<path style="fill:#6d6d6d; stroke:none;" d="M23 75L24 76L23 75z"/>
<path style="fill:#5d5d5d; stroke:none;" d="M65 76L66 77L65 76z"/>
<path style="fill:#8b8b8b; stroke:none;" d="M63 77L64 78L63 77z"/>
<path style="fill:#ffffff; stroke:none;" d="M71 108C75.2918 106.373 81.1891 100.288 85.956 102.287C92.5375 105.047 91 114.348 91 120L91 171L151 171L151 119C151 113.996 149.257 104.785 155.059 102.287C159.771 100.258 165.752 106.39 170 108L178 91C167.089 85.9057 157.464 77.0358 145 77C141.848 108.448 101.917 105.288 96 77C88.7494 77.0248 66.8812 84.0351 64.8164 92.2099C63.6729 96.7368 69.2906 103.894 71 108z"/>
<path style="fill:#373737; stroke:none;" d="M96 77L96 80L97 80L96 77z"/>
<path style="fill:#aaaaaa; stroke:none;" d="M108 77L108 80L109 80L108 77z"/>
<path style="fill:#ffffff; stroke:none;" d="M109 77C110.602 91.3813 130.511 91.4315 132 77L109 77z"/>
<path style="fill:#b3b3b3; stroke:none;" d="M132.333 77.6667L132.667 78.3333L132.333 77.6667z"/>
<path style="fill:#5b5b5b; stroke:none;" d="M153 77L154 78L153 77z"/>
<path style="fill:#606060; stroke:none;" d="M177 77L178 78L177 77z"/>
<path style="fill:#434343; stroke:none;" d="M230.333 77.6667L230.667 78.3333L230.333 77.6667z"/>
<path style="fill:#373737; stroke:none;" d="M9.33333 78.6667L9.66667 79.3333L9.33333 78.6667z"/>
<path style="fill:#a5a5a5; stroke:none;" d="M61 78L62 79L61 78z"/>
<path style="fill:#9e9e9e; stroke:none;" d="M86 78L87 79L86 78z"/>
<path style="fill:#484848; stroke:none;" d="M144.333 78.6667L144.667 79.3333L144.333 78.6667z"/>
<path style="fill:#7e7e7e; stroke:none;" d="M179 78L180 79L179 78z"/>
<path style="fill:#a0a0a0; stroke:none;" d="M59 79L60 80L59 79z"/>
<path style="fill:#898989; stroke:none;" d="M84 79L85 80L84 79z"/>
<path style="fill:#343434; stroke:none;" d="M132.333 79.6667L132.667 80.3333L132.333 79.6667z"/>
<path style="fill:#a0a0a0; stroke:none;" d="M156 79L157 80L156 79z"/>
<path style="fill:#8a8a8a; stroke:none;" d="M181 79L182 80L181 79z"/>
<path style="fill:#c4c4c4; stroke:none;" d="M218.333 79.6667L218.667 80.3333L218.333 79.6667z"/>
<path style="fill:#c9c9c9; stroke:none;" d="M21.3333 80.6667L21.6667 81.3333L21.3333 80.6667z"/>
<path style="fill:#a9a9a9; stroke:none;" d="M57 80L58 81L57 80z"/>
<path style="fill:#7b7b7b; stroke:none;" d="M82 80L83 81L82 80z"/>
<path style="fill:#a3a3a3; stroke:none;" d="M144.333 80.6667L144.667 81.3333L144.333 80.6667z"/>
<path style="fill:#9a9a9a; stroke:none;" d="M158 80L159 81L158 80z"/>
<path style="fill:#929292; stroke:none;" d="M183 80L184 81L183 80z"/>
<path style="fill:#454545; stroke:none;" d="M231.333 80.6667L231.667 81.3333L231.333 80.6667z"/>
<path style="fill:#424242; stroke:none;" d="M8.33333 81.6667L8.66667 82.3333L8.33333 81.6667z"/>
<path style="fill:#676767; stroke:none;" d="M80 81L81 82L80 81z"/>
<path style="fill:#7a7a7a; stroke:none;" d="M109 81L110 82L109 81z"/>
<path style="fill:#999999; stroke:none;" d="M131 81L132 82L131 81z"/>
<path style="fill:#8a8a8a; stroke:none;" d="M160 81L161 82L160 81z"/>
<path style="fill:#a9a9a9; stroke:none;" d="M185 81L186 82L185 81z"/>
<path style="fill:#888888; stroke:none;" d="M219.333 81.6667L219.667 82.3333L219.333 81.6667z"/>
<path style="fill:#9a9a9a; stroke:none;" d="M20 82L20 85L21 85L20 82z"/>
<path style="fill:#747474; stroke:none;" d="M162 82L163 83L162 82z"/>
<path style="fill:#707070; stroke:none;" d="M52 83L53 84L52 83z"/>
<path style="fill:#777777; stroke:none;" d="M97 83L98 84L97 83z"/>
<path style="fill:#858585; stroke:none;" d="M130 83L131 84L130 83z"/>
<path style="fill:#555555; stroke:none;" d="M232.333 83.6667L232.667 84.3333L232.333 83.6667z"/>
<path style="fill:#5e5e5e; stroke:none;" d="M7 84L7 87L8 87L7 84z"/>
<path style="fill:#808080; stroke:none;" d="M111 84L112 85L111 84z"/>
<path style="fill:#9e9e9e; stroke:none;" d="M190 84L191 85L190 84z"/>
<path style="fill:#898989; stroke:none;" d="M220.333 84.6667L220.667 85.3333L220.333 84.6667z"/>
<path style="fill:#929292; stroke:none;" d="M19 85L19 88L20 88L19 85z"/>
<path style="fill:#6f6f6f; stroke:none;" d="M73 85L74 86L73 85z"/>
<path style="fill:#818181; stroke:none;" d="M112 85L113 86L112 85z"/>
<path style="fill:#979797; stroke:none;" d="M167 85L168 86L167 85z"/>
<path style="fill:#9d9d9d; stroke:none;" d="M191 85L192 86L191 85z"/>
<path style="fill:#707070; stroke:none;" d="M127 86L128 87L127 86z"/>
<path style="fill:#838383; stroke:none;" d="M142 86L143 87L142 86z"/>
<path style="fill:#696969; stroke:none;" d="M169 86L170 87L169 86z"/>
<path style="fill:#808080; stroke:none;" d="M233.333 86.6667L233.667 87.3333L233.333 86.6667z"/>
<path style="fill:#8c8c8c; stroke:none;" d="M6.33333 87.6667L6.66667 88.3333L6.33333 87.6667z"/>
<path style="fill:#878787; stroke:none;" d="M115 87L116 88L115 87z"/>
<path style="fill:#979797; stroke:none;" d="M125 87L126 88L125 87z"/>
<path style="fill:#808080; stroke:none;" d="M192 87L192 91L193 91L192 87z"/>
<path style="fill:#6e6e6e; stroke:none;" d="M18.3333 88.6667L18.6667 89.3333L18.3333 88.6667z"/>
<path style="fill:#a6a6a6; stroke:none;" d="M48.3333 88.6667L48.6667 89.3333L48.3333 88.6667z"/>
<path style="fill:#969696; stroke:none;" d="M68 88L69 89L68 88z"/>
<path style="fill:#aeaeae; stroke:none;" d="M118 88L118 89L123 89L118 88z"/>
<path style="fill:#878787; stroke:none;" d="M141 88L142 89L141 88z"/>
<path style="fill:#bcbcbc; stroke:none;" d="M221.333 88.6667L221.667 89.3333L221.333 88.6667z"/>
<path style="fill:#6e6e6e; stroke:none;" d="M66 89L67 90L66 89z"/>
<path style="fill:#656565; stroke:none;" d="M100 89L101 90L100 89z"/>
<path style="fill:#9f9f9f; stroke:none;" d="M174 89L175 90L174 89z"/>
<path style="fill:#c1c1c1; stroke:none;" d="M5 90L5 93L6 93L5 90z"/>
<path style="fill:#737373; stroke:none;" d="M176 90L177 91L176 90z"/>
<path style="fill:#3d3d3d; stroke:none;" d="M17 91L17 94L18 94L17 91z"/>
<path style="fill:#c5c5c5; stroke:none;" d="M63.3333 91.6667L63.6667 92.3333L63.3333 91.6667z"/>
<path style="fill:#a6a6a6; stroke:none;" d="M139 91L140 92L139 91z"/>
<path style="fill:#3d3d3d; stroke:none;" d="M234.333 91.6667L234.667 92.3333L234.333 91.6667z"/>
<path style="fill:#a6a6a6; stroke:none;" d="M102 92L103 93L102 92z"/>
<path style="fill:#797979; stroke:none;" d="M138 92L139 93L138 92z"/>
<path style="fill:#656565; stroke:none;" d="M191 92L192 93L191 92z"/>
<path style="fill:#a9a9a9; stroke:none;" d="M103 93L104 94L103 93z"/>
<path style="fill:#6b6b6b; stroke:none;" d="M137 93L138 94L137 93z"/>
<path style="fill:#9b9b9b; stroke:none;" d="M64 94L65 95L64 94z"/>
<path style="fill:#767676; stroke:none;" d="M136 94L137 95L136 94z"/>
<path style="fill:#707070; stroke:none;" d="M190 94L191 95L190 94z"/>
<path style="fill:#aeaeae; stroke:none;" d="M235.333 94.6667L235.667 95.3333L235.333 94.6667z"/>
<path style="fill:#717171; stroke:none;" d="M65 96L66 97L65 96z"/>
<path style="fill:#666666; stroke:none;" d="M107 96L108 97L107 96z"/>
<path style="fill:#a1a1a1; stroke:none;" d="M189 96L190 97L189 96z"/>
<path style="fill:#6e6e6e; stroke:none;" d="M4 97L4 100L5 100L4 97z"/>
<path style="fill:#757575; stroke:none;" d="M52 97L53 98L52 97z"/>
<path style="fill:#c1c1c1; stroke:none;" d="M16.3333 98.6667L16.6667 99.3333L16.3333 98.6667z"/>
<path style="fill:#6f6f6f; stroke:none;" d="M66 98L67 99L66 98z"/>
<path style="fill:#9e9e9e; stroke:none;" d="M53 99L54 100L53 99z"/>
<path style="fill:#898989; stroke:none;" d="M127 99L128 100L127 99z"/>
<path style="fill:#9c9c9c; stroke:none;" d="M118 100L118 101L123 101L118 100z"/>
<path style="fill:#898989; stroke:none;" d="M173 100L174 101L173 100z"/>
<path style="fill:#727272; stroke:none;" d="M224 100L224 103L225 103L224 100z"/>
<path style="fill:#a6a6a6; stroke:none;" d="M236.333 100.667L236.667 101.333L236.333 100.667z"/>
<path style="fill:#5f5f5f; stroke:none;" d="M186 101L187 102L186 101z"/>
<path style="fill:#5b5b5b; stroke:none;" d="M68 102L69 103L68 102z"/>
<path style="fill:#919191; stroke:none;" d="M80 102L81 103L80 102z"/>
<path style="fill:#747474; stroke:none;" d="M160 102L161 103L160 102z"/>
<path style="fill:#858585; stroke:none;" d="M172 102L173 103L172 102z"/>
<path style="fill:#393939; stroke:none;" d="M236.333 102.667L236.667 103.333L236.333 102.667z"/>
<path style="fill:#979797; stroke:none;" d="M3.33333 103.667L3.66667 104.333L3.33333 103.667z"/>
<path style="fill:#818181; stroke:none;" d="M15 103L15 106L16 106L15 103z"/>
<path style="fill:#8c8c8c; stroke:none;" d="M185 103L186 104L185 103z"/>
<path style="fill:#999999; stroke:none;" d="M77 104L78 105L77 104z"/>
<path style="fill:#7c7c7c; stroke:none;" d="M151 104L152 105L151 104z"/>
<path style="fill:#717171; stroke:none;" d="M163 104L164 105L163 104z"/>
<path style="fill:#5a5a5a; stroke:none;" d="M3.33333 105.667L3.66667 106.333L3.33333 105.667z"/>
<path style="fill:#5c5c5c; stroke:none;" d="M57 106L58 107L57 106z"/>
<path style="fill:#909090; stroke:none;" d="M74 106L75 107L74 106z"/>
<path style="fill:#a2a2a2; stroke:none;" d="M90 106L90 171L91 171L91 127L90 106z"/>
<path style="fill:#767676; stroke:none;" d="M166 106L167 107L166 106z"/>
<path style="fill:#6d6d6d; stroke:none;" d="M170 106L171 107L170 106z"/>
<path style="fill:#474747; stroke:none;" d="M225.333 107.667L225.667 108.333L225.333 107.667z"/>
<path style="fill:#5a5a5a; stroke:none;" d="M58 108L59 109L58 108z"/>
<path style="fill:#7d7d7d; stroke:none;" d="M225 109L225 112L226 112L225 109z"/>
<path style="fill:#6c6c6c; stroke:none;" d="M59 110L60 111L59 110z"/>
<path style="fill:#585858; stroke:none;" d="M181 110L182 111L181 110z"/>
<path style="fill:#404040; stroke:none;" d="M14 111L14 125L15 125L14 111z"/>
<path style="fill:#9b9b9b; stroke:none;" d="M60 112L61 113L60 112z"/>
<path style="fill:#6b6b6b; stroke:none;" d="M180 112L181 113L180 112z"/>
<path style="fill:#d7d7d7; stroke:none;" d="M225 112L225 125L226 125L225 112z"/>
<path style="fill:#676767; stroke:none;" d="M179 114L180 115L179 114z"/>
<path style="fill:#828282; stroke:none;" d="M178 116L179 117L178 116z"/>
<path style="fill:#9c9c9c; stroke:none;" d="M77 117C81.5247 136.005 78 159.469 78 179L79 179L79 133L77 117z"/>
<path style="fill:#191919; stroke:none;" d="M162 117L162 179L163 179L163 137L162 117z"/>
<path style="fill:#8a8a8a; stroke:none;" d="M64 119L65 120L64 119z"/>
<path style="fill:#585858; stroke:none;" d="M74 119L75 120L74 119z"/>
<path style="fill:#808080; stroke:none;" d="M166 119L167 120L166 119z"/>
<path style="fill:#969696; stroke:none;" d="M73 120L74 121L73 120z"/>
<path style="fill:#a8a8a8; stroke:none;" d="M66 121L67 122L66 121z"/>
<path style="fill:#575757; stroke:none;" d="M169 121L170 122L169 121z"/>
<path style="fill:#979797; stroke:none;" d="M174 121L175 122L174 121z"/>
<path style="fill:#848484; stroke:none;" d="M225 125L225 128L226 128L225 125z"/>
<path style="fill:#5e5e5e; stroke:none;" d="M3.33333 129.667L3.66667 130.333L3.33333 129.667z"/>
<path style="fill:#969696; stroke:none;" d="M15.3333 130.667L15.6667 131.333L15.3333 130.667z"/>
<path style="fill:#aaaaaa; stroke:none;" d="M3.33333 131.667L3.66667 132.333L3.33333 131.667z"/>
<path style="fill:#5b5b5b; stroke:none;" d="M236.333 132.667L236.667 133.333L236.333 132.667z"/>
<path style="fill:#9e9e9e; stroke:none;" d="M224.333 133.667L224.667 134.333L224.333 133.667z"/>
<path style="fill:#adadad; stroke:none;" d="M236.333 134.667L236.667 135.333L236.333 134.667z"/>
<path style="fill:#515151; stroke:none;" d="M4.33333 136.667L4.66667 137.333L4.33333 136.667z"/>
<path style="fill:#a7a7a7; stroke:none;" d="M16.3333 136.667L16.6667 137.333L16.3333 136.667z"/>
<path style="fill:#535353; stroke:none;" d="M223.333 139.667L223.667 140.333L223.333 139.667z"/>
<path style="fill:#8f8f8f; stroke:none;" d="M235.333 139.667L235.667 140.333L235.333 139.667z"/>
<path style="fill:#8c8c8c; stroke:none;" d="M17.3333 141.667L17.6667 142.333L17.3333 141.667M5.33333 142.667L5.66667 143.333L5.33333 142.667z"/>
<path style="fill:#a0a0a0; stroke:none;" d="M234.333 144.667L234.667 145.333L234.333 144.667z"/>
<path style="fill:#767676; stroke:none;" d="M6.33333 146.667L6.66667 147.333L6.33333 146.667z"/>
<path style="fill:#525252; stroke:none;" d="M18.3333 146.667L18.6667 147.333L18.3333 146.667z"/>
<path style="fill:#515151; stroke:none;" d="M221.333 147.667L221.667 148.333L221.333 147.667z"/>
<path style="fill:#a8a8a8; stroke:none;" d="M233 148L233 151L234 151L233 148z"/>
<path style="fill:#666666; stroke:none;" d="M19.3333 149.667L19.6667 150.333L19.3333 149.667z"/>
<path style="fill:#7c7c7c; stroke:none;" d="M7.33333 150.667L7.66667 151.333L7.33333 150.667z"/>
<path style="fill:#5b5b5b; stroke:none;" d="M220.333 150.667L220.667 151.333L220.333 150.667z"/>
<path style="fill:#828282; stroke:none;" d="M232.333 151.667L232.667 152.333L232.333 151.667z"/>
<path style="fill:#656565; stroke:none;" d="M20.3333 152.667L20.6667 153.333L20.3333 152.667z"/>
<path style="fill:#636363; stroke:none;" d="M8 153L8 156L9 156L8 153M219.333 153.667L219.667 154.333L219.333 153.667z"/>
<path style="fill:#a8a8a8; stroke:none;" d="M21 155L22 156L21 155z"/>
<path style="fill:#afafaf; stroke:none;" d="M231.333 155.667L231.667 156.333L231.333 155.667z"/>
<path style="fill:#4c4c4c; stroke:none;" d="M218.333 156.667L218.667 157.333L218.333 156.667z"/>
<path style="fill:#626262; stroke:none;" d="M9 157L10 158L9 157z"/>
<path style="fill:#676767; stroke:none;" d="M230.333 157.667L230.667 158.333L230.333 157.667z"/>
<path style="fill:#868686; stroke:none;" d="M22 158L23 159L22 158z"/>
<path style="fill:#6c6c6c; stroke:none;" d="M217 159L218 160L217 159z"/>
<path style="fill:#7e7e7e; stroke:none;" d="M10 160L11 161L10 160z"/>
<path style="fill:#888888; stroke:none;" d="M216 161L217 162L216 161z"/>
<path style="fill:#8f8f8f; stroke:none;" d="M229 161L230 162L229 161z"/>
<path style="fill:#565656; stroke:none;" d="M228 163L229 164L228 163z"/>
<path style="fill:#989898; stroke:none;" d="M13 167L14 168L13 167z"/>
<path style="fill:#969696; stroke:none;" d="M213 167L214 168L213 167z"/>
<path style="fill:#9f9f9f; stroke:none;" d="M27 168L28 169L27 168z"/>
<path style="fill:#878787; stroke:none;" d="M14 169L15 170L14 169z"/>
<path style="fill:#707070; stroke:none;" d="M212 169L213 170L212 169z"/>
<path style="fill:#757575; stroke:none;" d="M28 170L29 171L28 170z"/>
<path style="fill:#909090; stroke:none;" d="M15 171L16 172L15 171z"/>
<path style="fill:#575757; stroke:none;" d="M90 171L90 172L151 172L131 171L90 171z"/>
<path style="fill:#959595; stroke:none;" d="M16 173L17 174L16 173z"/>
<path style="fill:#a6a6a6; stroke:none;" d="M30 173L31 174L30 173z"/>
<path style="fill:#636363; stroke:none;" d="M209 174L210 175L209 174z"/>
<path style="fill:#6f6f6f; stroke:none;" d="M31 175L32 176L31 175z"/>
<path style="fill:#585858; stroke:none;" d="M222 175L223 176L222 175z"/>
<path style="fill:#747474; stroke:none;" d="M207 177L208 178L207 177z"/>
<path style="fill:#7f7f7f; stroke:none;" d="M221 177L222 178L221 177z"/>
<path style="fill:#6f6f6f; stroke:none;" d="M19 178L20 179L19 178z"/>
<path style="fill:#757575; stroke:none;" d="M33 178L34 179L33 178z"/>
<path style="fill:#9f9f9f; stroke:none;" d="M220 179L221 180L220 179z"/>
<path style="fill:#929292; stroke:none;" d="M20 180L21 181L20 180z"/>
<path style="fill:#575757; stroke:none;" d="M79 180L80 181L79 180z"/>
<path style="fill:#6e6e6e; stroke:none;" d="M205 180L206 181L205 180z"/>
<path style="fill:#a7a7a7; stroke:none;" d="M204 181L205 182L204 181z"/>
<path style="fill:#858585; stroke:none;" d="M36 182L37 183L36 182z"/>
<path style="fill:#717171; stroke:none;" d="M81 182L82 183L81 182z"/>
<path style="fill:#838383; stroke:none;" d="M218 182L219 183L218 182z"/>
<path style="fill:#818181; stroke:none;" d="M22 183L23 184L22 183z"/>
<path style="fill:#e5e5e5; stroke:none;" d="M82 183L82 184L159 184L135 183L82 183z"/>
<path style="fill:#7a7a7a; stroke:none;" d="M201 185L202 186L201 185z"/>
<path style="fill:#717171; stroke:none;" d="M216 185L217 186L216 185z"/>
<path style="fill:#a7a7a7; stroke:none;" d="M24 186L25 187L24 186M200 186L201 187L200 186z"/>
<path style="fill:#616161; stroke:none;" d="M40 187L41 188L40 187z"/>
<path style="fill:#686868; stroke:none;" d="M41 188L42 189L41 188z"/>
<path style="fill:#a7a7a7; stroke:none;" d="M42 189L43 190L42 189z"/>
<path style="fill:#757575; stroke:none;" d="M213 189L214 190L213 189z"/>
<path style="fill:#a7a7a7; stroke:none;" d="M27 190L28 191L27 190z"/>
<path style="fill:#a3a3a3; stroke:none;" d="M43 190L44 191L43 190z"/>
<path style="fill:#747474; stroke:none;" d="M28 191L29 192L28 191z"/>
<path style="fill:#a1a1a1; stroke:none;" d="M44 191L45 192L44 191M45 192L46 193L45 192z"/>
<path style="fill:#a3a3a3; stroke:none;" d="M46 193L47 194L46 193z"/>
<path style="fill:#a6a6a6; stroke:none;" d="M47 194L48 195L47 194z"/>
<path style="fill:#8c8c8c; stroke:none;" d="M209 194L210 195L209 194z"/>
<path style="fill:#7b7b7b; stroke:none;" d="M208 195L209 196L208 195z"/>
<path style="fill:#9e9e9e; stroke:none;" d="M32 196L33 197L32 196z"/>
<path style="fill:#8a8a8a; stroke:none;" d="M49 196L50 197L49 196z"/>
<path style="fill:#8c8c8c; stroke:none;" d="M33 197L34 198L33 197z"/>
<path style="fill:#5b5b5b; stroke:none;" d="M50 197L51 198L50 197z"/>
<path style="fill:#5d5d5d; stroke:none;" d="M34 198L35 199L34 198z"/>
<path style="fill:#a7a7a7; stroke:none;" d="M188 198L189 199L188 198z"/>
<path style="fill:#606060; stroke:none;" d="M35 199L36 200L35 199z"/>
<path style="fill:#7a7a7a; stroke:none;" d="M187 199L188 200L187 199z"/>
<path style="fill:#5e5e5e; stroke:none;" d="M36 200L37 201L36 200z"/>
<path style="fill:#606060; stroke:none;" d="M37 201L38 202L37 201z"/>
<path style="fill:#a0a0a0; stroke:none;" d="M55 201L56 202L55 201z"/>
<path style="fill:#5f5f5f; stroke:none;" d="M38 202L39 203L38 202z"/>
<path style="fill:#616161; stroke:none;" d="M56 202L57 203L56 202z"/>
<path style="fill:#a7a7a7; stroke:none;" d="M183 202L184 203L183 202z"/>
<path style="fill:#636363; stroke:none;" d="M39 203L40 204L39 203z"/>
<path style="fill:#6e6e6e; stroke:none;" d="M182 203L183 204L182 203z"/>
<path style="fill:#7b7b7b; stroke:none;" d="M40 204L41 205L40 204z"/>
<path style="fill:#8a8a8a; stroke:none;" d="M59 204L60 205L59 204z"/>
<path style="fill:#9f9f9f; stroke:none;" d="M41 205L42 206L41 205z"/>
<path style="fill:#747474; stroke:none;" d="M179 205L180 206L179 205z"/>
<path style="fill:#777777; stroke:none;" d="M62 206L63 207L62 206z"/>
<path style="fill:#7a7a7a; stroke:none;" d="M197 206L198 207L197 206z"/>
<path style="fill:#616161; stroke:none;" d="M176 207L177 208L176 207z"/>
<path style="fill:#919191; stroke:none;" d="M196 207L197 208L196 207z"/>
<path style="fill:#676767; stroke:none;" d="M65 208L66 209L65 208z"/>
<path style="fill:#848484; stroke:none;" d="M47 210L48 211L47 210z"/>
<path style="fill:#707070; stroke:none;" d="M171 210L172 211L171 210z"/>
<path style="fill:#969696; stroke:none;" d="M169 211L170 212L169 211z"/>
<path style="fill:#757575; stroke:none;" d="M191 211L192 212L191 211z"/>
<path style="fill:#5d5d5d; stroke:none;" d="M72 212L73 213L72 212z"/>
<path style="fill:#717171; stroke:none;" d="M51 213L52 214L51 213z"/>
<path style="fill:#696969; stroke:none;" d="M74 213L75 214L74 213M76 214L77 215L76 214z"/>
<path style="fill:#888888; stroke:none;" d="M163 214L164 215L163 214z"/>
<path style="fill:#717171; stroke:none;" d="M187 214L188 215L187 214z"/>
<path style="fill:#5e5e5e; stroke:none;" d="M54 215L55 216L54 215z"/>
<path style="fill:#6c6c6c; stroke:none;" d="M161 215L162 216L161 215z"/>
<path style="fill:#c4c4c4; stroke:none;" d="M81.6667 216.333L82.3333 216.667L81.6667 216.333z"/>
<path style="fill:#4c4c4c; stroke:none;" d="M158.667 216.333L159.333 216.667L158.667 216.333z"/>
<path style="fill:#7a7a7a; stroke:none;" d="M184 216L185 217L184 216z"/>
<path style="fill:#828282; stroke:none;" d="M57 217L58 218L57 217z"/>
<path style="fill:#888888; stroke:none;" d="M83.6667 217.333L84.3333 217.667L83.6667 217.333z"/>
<path style="fill:#636363; stroke:none;" d="M155.667 217.333L156.333 217.667L155.667 217.333z"/>
<path style="fill:#7a7a7a; stroke:none;" d="M86.6667 218.333L87.3333 218.667L86.6667 218.333z"/>
<path style="fill:#5b5b5b; stroke:none;" d="M152.667 218.333L153.333 218.667L152.667 218.333z"/>
<path style="fill:#9f9f9f; stroke:none;" d="M181 218L182 219L181 218z"/>
<path style="fill:#bcbcbc; stroke:none;" d="M90.6667 219.333L91.3333 219.667L90.6667 219.333z"/>
<path style="fill:#515151; stroke:none;" d="M149.667 219.333L150.333 219.667L149.667 219.333z"/>
<path style="fill:#7f7f7f; stroke:none;" d="M179 219L180 220L179 219z"/>
<path style="fill:#979797; stroke:none;" d="M62 220L63 221L62 220z"/>
<path style="fill:#5c5c5c; stroke:none;" d="M145.667 220.333L146.333 220.667L145.667 220.333z"/>
<path style="fill:#585858; stroke:none;" d="M177 220L178 221L177 220z"/>
<path style="fill:#717171; stroke:none;" d="M64 221L65 222L64 221z"/>
<path style="fill:#535353; stroke:none;" d="M141.667 221.333L142.333 221.667L141.667 221.333z"/>
<path style="fill:#727272; stroke:none;" d="M102 222L102 223L105 223L102 222z"/>
<path style="fill:#9e9e9e; stroke:none;" d="M135.667 222.333L136.333 222.667L135.667 222.333z"/>
<path style="fill:#474747; stroke:none;" d="M109.667 223.333L110.333 223.667L109.667 223.333z"/>
<path style="fill:#7d7d7d; stroke:none;" d="M111 223L111 224L114 224L111 223z"/>
<path style="fill:#d7d7d7; stroke:none;" d="M114 223L114 224L127 224L114 223z"/>
<path style="fill:#848484; stroke:none;" d="M127 223L127 224L130 224L127 223z"/>
<path style="fill:#878787; stroke:none;" d="M74 226L75 227L74 226z"/>
<path style="fill:#565656; stroke:none;" d="M165 226L166 227L165 226z"/>
<path style="fill:#8f8f8f; stroke:none;" d="M163 227L164 228L163 227z"/>
<path style="fill:#434343; stroke:none;" d="M79.6667 228.333L80.3333 228.667L79.6667 228.333z"/>
<path style="fill:#656565; stroke:none;" d="M159.667 228.333L160.333 228.667L159.667 228.333z"/>
<path style="fill:#474747; stroke:none;" d="M82.6667 229.333L83.3333 229.667L82.6667 229.333z"/>
<path style="fill:#aeaeae; stroke:none;" d="M157.667 229.333L158.333 229.667L157.667 229.333z"/>
<path style="fill:#959595; stroke:none;" d="M84.6667 230.333L85.3333 230.667L84.6667 230.333z"/>
<path style="fill:#828282; stroke:none;" d="M153.667 230.333L154.333 230.667L153.667 230.333z"/>
<path style="fill:#808080; stroke:none;" d="M88.6667 231.333L89.3333 231.667L88.6667 231.333z"/>
<path style="fill:#a8a8a8; stroke:none;" d="M150 231L150 232L153 232L150 231z"/>
<path style="fill:#3d3d3d; stroke:none;" d="M93.6667 232.333L94.3333 232.667L93.6667 232.333z"/>
<path style="fill:#a0a0a0; stroke:none;" d="M146.667 232.333L147.333 232.667L146.667 232.333z"/>
<path style="fill:#aeaeae; stroke:none;" d="M96.6667 233.333L97.3333 233.667L96.6667 233.333z"/>
<path style="fill:#8f8f8f; stroke:none;" d="M141.667 233.333L142.333 233.667L141.667 233.333z"/>
<path style="fill:#a6a6a6; stroke:none;" d="M102.667 234.333L103.333 234.667L102.667 234.333z"/>
<path style="fill:#393939; stroke:none;" d="M104.667 234.333L105.333 234.667L104.667 234.333z"/>
<path style="fill:#5b5b5b; stroke:none;" d="M134.667 234.333L135.333 234.667L134.667 234.333z"/>
<path style="fill:#adadad; stroke:none;" d="M136.667 234.333L137.333 234.667L136.667 234.333z"/>
</svg>
