<?xml version="1.0" encoding="UTF-8"?>
<!DOCTYPE svg PUBLIC "-//W3C//DTD SVG 1.1//EN" "http://www.w3.org/Graphics/SVG/1.1/DTD/svg11.dtd">
<!-- Creator: CorelDRAW 2021.5 (評估版本) -->
<svg xmlns="http://www.w3.org/2000/svg" xml:space="preserve" width="70mm" height="70mm" version="1.1" style="shape-rendering:geometricPrecision; text-rendering:geometricPrecision; image-rendering:optimizeQuality; fill-rule:evenodd; clip-rule:evenodd"
viewBox="0 0 7000 7000"
 xmlns:xlink="http://www.w3.org/1999/xlink"
 xmlns:xodm="http://www.corel.com/coreldraw/odm/2003">
 <defs>
  <style type="text/css">
   <![CDATA[
    .str0 {stroke:white;stroke-width:20;stroke-miterlimit:22.9256}
    .fil0 {fill:black}
    .fil3 {fill:#3A3A3A}
    .fil1 {fill:#727272}
    .fil2 {fill:#A4A4A4}
    .fil4 {fill:#CECECE}
    .fil5 {fill:white}
   ]]>
  </style>
 </defs>
 <g id="圖層_x0020_1">
  <metadata id="CorelCorpID_0Corel-Layer"/>
  <g id="_1442377317536">
   <g>
    <path class="fil0" d="M3237.62 2995.09c37.64,-17.77 46.65,36.62 16.13,-33.67 -25.19,-211.38 -617.74,-1634.49 -772.5,-2047.51l-191.06 -496.47c-6.98,-18.13 -29.53,-75.16 -36.43,-88.49l-50.92 -77.98 -249.73 98.62 1284.51 2645.5zm28.84 66.32c40.23,18.97 33.99,26.78 24.04,-16.6l8.26 -43.18 -28.8 28.19 -3.5 31.59zm59.43 121.68c44.29,31.88 31.13,31.46 24.45,-21.66 -75.07,-59.28 55.06,80.93 -25.62,-54.25l-0.11 -16.32 -20.84 5.64 22.12 86.59zm64.94 -120.49l0.15 -57.42 -29.42 35 6.58 67 23.37 20.55 -0.68 -65.13zm-12.34 150.97l-6.57 31.04 6.57 -31.04 34.95 -17.46 -14.78 -70.24 -20.17 87.7zm-84.42 5.92l4.74 35.11c36.93,-29.36 30.61,-7.72 -4.74,-35.11l-0.49 -57.9c-5.67,5.63 -14.91,16.6 -14.67,19.02 4.08,41.61 1.6,17.25 15.16,38.88zm-89.25 -26.22c0.44,-47.47 12.82,-38.32 -32.57,-32.51l-4.73 -12.3 -45.79 -30.42 -19.55 13.58 70.07 29.14c-4.33,46.33 -14.55,34.88 32.57,32.51l37.53 32.67 17.38 18.28 -17.38 -18.28 -37.53 -32.67zm-129.85 -97.81c37.05,13.96 28.91,19.59 22.12,-19.62 -208.13,-307.48 -884.57,-1035.36 -1177,-1380.24 -162.65,-191.83 -591.49,-754.14 -721.27,-831.19l-203.28 183.73c556.75,636.83 1566.09,1473.53 2079.43,2047.32zm154.67 36.61l3.23 -35.12 -2.98 -15.63c-28.87,-38.28 -26.81,28.33 -43.57,-59.62l15.05 81.86 28.27 28.51c27.44,52.38 -1.46,62.52 38.97,-1.89l-38.97 1.89zm-82.79 -111.73c51.73,1.78 41.39,14.61 34.1,-35.67l-750.56 -1237.95c-115.72,-192.64 -666.76,-1163.92 -766.85,-1234.47 -78.29,52.91 -137.12,83.36 -207.35,149.18 46.64,149.83 1623.06,2267.17 1690.66,2358.91z"/>
    <path class="fil0" d="M3713.1 3891.54l-44.92 -0.1c49.18,66.98 1283.07,2465 1378.41,2738.74l253.41 -156.25 -1507.49 -2458.66c-48.07,0 -38.38,12.72 -34.35,-33.18l-26.84 -103.3c44.75,17.17 32.88,4.27 71.81,44.25 51.34,39.48 22.75,-35.54 59.07,82.14l1480.01 2015.47c92.15,133.97 125.88,220.87 247.09,297.03 82.32,-78.81 85.87,-91.84 190.43,-145.15 -52,-178.42 -285.08,-343.47 -428.43,-534.76 -78.73,-105.03 -116.79,-149.81 -216.35,-252.4l-1128.65 -1264.07c-52.21,-33.88 -20.39,-2.99 -60.68,-45.77 -8.97,-9.52 -31.59,-45.47 -38.71,-56.68 -32.86,-51.77 -36.36,-63.4 -71.43,-119.77l-92.98 -125.33 -29.4 117.79zm-56.89 -20.84l-50.42 9.87 670.49 2238.82c33.12,112.58 177.99,632.94 239.06,725.39l255.68 -79.81c-112.16,-437.65 -1089.59,-2625.56 -1114.81,-2894.27z"/>
    <path class="fil0" d="M3023.11 3658.81l-1422.6 493.76c-204.61,68.65 -1330.82,433.38 -1414.96,508.86 37.07,97.12 39.23,159.01 113.73,251.75l2716.06 -1199.92c67.57,59.96 26.84,14.3 4.64,42.4l-32.14 33.09c-135.22,41.47 -926.72,506.83 -1124.43,619.61l-1448.83 779.09 163.26 240.97c325.4,-163.03 2059.04,-1403.14 2437.5,-1607.14l32.79 -35.21c39.92,-16.83 41.39,25.93 30.94,-31.89l18.27 -27.68 -8.71 4.87c-96.88,-46.77 -69.77,-16.36 -1.25,-38.69l10.45 -30.54 0 -26.86 -74.72 23.53z"/>
    <path class="fil0" d="M3664.55 114.36c29.16,401.28 -45.05,1108.34 -72.59,1536.45 -23.41,363.76 -105.5,1170.15 -64.29,1493.72l16.36 0.54c8.53,-98.77 37.14,-109.45 42.26,-129.67l7.53 134.16 -1.86 -2.21 33.56 -159.69 -13.28 -23.53c-64.34,101.87 8.57,50.77 -51.4,9.91l413.2 -2930.67 -154.51 -13.28 -125.01 -8.35 -29.97 92.62zm-11.35 2775.13l16.15 31.74 883.49 -2757.45 -287.5 -64.85c-63.62,434.56 -219.06,970.8 -317.98,1401.48 -61.64,268.43 -307.83,1183.87 -294.16,1389.08z"/>
    <path class="fil0" d="M3138.12 3879.12l-1500.8 1683.67c-138.66,164.77 -375.4,398.83 -475.73,580.07 110.85,68.88 103.8,110.7 244.72,152.6l887.23 -1198.59c126.58,-170.03 797.23,-1095.03 885.83,-1154.35l72.22 -87.25c-23,-47.39 -36.47,-42.46 14.79,-32.44l-0.06 -23.38 -24.8 18.07c-41.13,14.37 -20.54,7.57 -48.35,23.82 -22.07,12.89 -32.56,32.34 -36.18,24.23 -2.69,-6.03 -12.45,9.23 -18.87,13.55z"/>
    <path class="fil0" d="M3379.79 4099.4l-17.31 -39.91c-89.54,442.87 -633.4,2632.45 -611.87,2867.51l274.73 46.93c52.21,-473.57 120.4,-956.41 187.07,-1432.07 39.58,-282.47 201.04,-1225.37 167.38,-1442.46z"/>
    <polygon class="fil0" points="3012.58,3454.14 3026.8,3406.47 37.01,2883.82 23.66,3177.28 "/>
    <path class="fil0" d="M3923.13 3688.75l35.98 33.16 2723.58 1220.77 96.19 -248.24 -156.4 -78.03c-512.59,-187.06 -2445.72,-892.94 -2643.46,-920.59l-36 -31.94 -48.78 -7.82 -5.81 39.69 34.7 -7z"/>
    <path class="fil0" d="M3327.84 7005.18l287.23 0 -103.21 -2949.65c-24.63,-23.56 -38.78,-25.63 -55.97,-64.42l-128.05 3014.07z"/>
    <path class="fil0" d="M3793.28 3789.74l39.33 23.17c64.85,112.07 980.48,962.44 1091.46,1065.36l1072.85 1046c77.2,-69.63 125.13,-133.2 199.71,-225.37l-2328.06 -1885.26 -35.96 -0.73 -39.33 -23.17 0.58 -39.23c-36.74,-21.86 -37.66,-28.2 -57.89,-59.15 -72.04,50.13 -55.68,12.65 57.31,98.38z"/>
    <path class="fil0" d="M3957.69 3606.24l-18.1 23.64c380.36,43.41 2683.4,753.59 2937.7,737.25l58.29 -274.22c-477.35,-54.07 -1004.11,-169.35 -1480.77,-248.9 -315.02,-52.57 -1250.26,-254.33 -1497.12,-237.77z"/>
    <path class="fil0" d="M3211.08 3973.77c-105.5,93.36 -282.91,423.06 -398.98,608.43 -165.13,263.72 -1121.16,1750.73 -1171.76,1906.12 104.62,43.81 130.91,84.59 265.12,123.29 48.12,-167.96 860.03,-1705.03 1008.65,-1987.95 88.89,-169.17 271.16,-475.66 306.85,-657.46l42.16 -49.79 5.51 -2.49 -57.55 59.85z"/>
    <path class="fil0" d="M3302.59 3973.77c-89.59,151.67 -211.58,497.48 -288.52,686.07l-847.69 2093.06 255.21 84.08c70.12,-93.81 893.01,-2718.44 892.65,-2872.68l38.54 -52.71 15.57 -18.05 -46.22 -17.72 20.28 47.76 -39.82 50.19z"/>
    <path class="fil0" d="M3952.68 3354.46l-16.1 10.17c191.03,15.79 1243.07,-266.27 1510.74,-333.32 257.02,-64.39 482.95,-117.48 729.51,-176.15 109.85,-26.14 627.07,-122.24 705.57,-205.02l-90.28 -249.05 -2839.44 953.37z"/>
    <path class="fil0" d="M3798.39 3033.59l-31.03 66.28 50.38 -63.28c72.41,-38.28 163.28,-179.85 220.63,-258.81l445.3 -586.81c184.35,-233.14 1040.02,-1320.34 1116.64,-1470.95 -52.77,-52.06 -155.53,-120.94 -249.63,-159.17l-766.92 1238.98c-130.31,217.82 -231.94,347.45 -392.75,600.26 -88.02,138.36 -347.97,504.54 -392.62,633.5zm-66.13 97.61l8.33 -1.18 -8.33 1.18z"/>
    <path class="fil0" d="M3905.35 3286.2l-8.53 35.87c232.76,-76.36 2742.92,-1174.25 2790.96,-1223.14 -34.06,-81.11 -71.58,-161.05 -114.21,-245.73 -219.99,92.87 -443.35,244.06 -666.73,355.2l-2001.49 1077.8z"/>
    <path class="fil0" d="M3042.1 3292.4l14.04 -44.68c-190.79,-74.92 -474.16,-254.9 -663.84,-368.89l-1939.46 -1100.63c-71.48,78.94 -106.03,148.66 -136.1,264.2 207.98,48.42 2365.55,1129.79 2725.36,1250z"/>
    <polygon class="fil0" points="3072.18,3387.01 3075.11,3346.32 188.96,2312.69 111.46,2590.16 "/>
    <path class="fil0" d="M3926.09 3037.53l-80.81 141.34 -32.39 30.11 -43.41 -14.08c-53.38,57.76 -48.16,50.07 -101.56,89.48l27.71 40.74c11.5,0.15 17.04,-30.09 19.32,-24.93 25.84,58.59 -24.43,-8.23 97.94,-91.21l32.39 -30.11 6.2 -23.68c67.46,-150.66 123.5,-152.7 227.46,-212.16 251.89,-183.27 719.02,-677.62 997.18,-909.49l488.51 -448.97c88.43,-78.92 140.68,-155.28 232.48,-233.75 88.5,-75.65 167.71,-135.97 254.08,-222.33l-201.73 -207.43c-84.87,86.58 -173.02,158.23 -253.27,257.03 -93.19,114.75 -115.47,146.36 -238.3,262.73 -98.16,93 -125.26,155.4 -239.48,261.8l-1192.32 1334.91z"/>
    <path class="fil0" d="M3952.68 3165.17l-52.22 73.16 -38.06 -3.84 -30.81 0.75 -28.32 16.65 -7.84 36.11 1 5.72 -19.96 24.33 8.38 -14.2 10.58 -15.85 1.31 -3.25c17.34,-58.3 -2.73,-47.15 50.83,-45.91l52.89 -0.51 -9.96 -16.2 53.02 -45.36c82.19,-15.71 12.15,11.2 108.49,-40.74l2359.95 -1546.73c-46.56,-75.72 -110.53,-150.12 -158.57,-228.42 -393.38,262.52 -1653.1,1275.42 -2185.28,1697.67 -12.6,10.01 -53.74,41.46 -67.6,53.85 -38.84,34.69 -31.12,18.1 -47.83,52.77z"/>
    <polygon class="fil0" points="3294.82,2884.54 3334.67,2934.08 3320.44,2989.2 3370.55,2969.77 2793.63,74.61 2513.21,136.16 "/>
    <path class="fil0" d="M-15.91 3752.74c354.69,28.96 1020.73,-64 1406.5,-91.5 286.72,-20.44 1225.02,-130.51 1433.93,-84.18 23.71,-14.66 16.04,-20.22 67.36,-31.74 15.8,-3.56 73.4,-9.66 90.88,-11.01 67.84,-5.23 137.72,-2.71 206.04,-3.47l-0.74 -19.29 -3203.97 -37.62 0 278.81z"/>
    <path class="fil0" d="M4046.43 3420.6c-39.49,55.54 44.54,74.58 -85.69,34.21l-109.69 -16.89 -4.01 31.31c429.34,18.9 1059.39,-64.83 1512.04,-89.67 377.48,-20.71 1191.34,-126.91 1518.97,-78.38l70.81 -219.15 -27.37 -99.53 -2875.06 438.1z"/>
    <path class="fil0" d="M3572.35 3890.9l-20.01 29.76 358.51 3032.25c96.59,25.74 210.41,6.99 286.07,-41.48l-624.57 -3020.53z"/>
    <polygon class="fil0" points="3807.19,3533.94 6984.09,3785.21 6984.09,3505.18 3843.03,3509.64 3753.73,3507.31 3744.84,3523.92 "/>
    <path class="fil0" d="M154.15 4020.88c-92.91,103.09 -50.89,-16.34 -104.53,98.36l33.18 225.31 2911.1 -716.58 11.87 -35.83 -59.28 6.03c-442.23,49.36 -919.25,147.99 -1370.53,217.24 -312.79,47.98 -1166.6,229.61 -1421.81,205.47z"/>
    <path class="fil0" d="M3111.52 39.72l7.39 74.59c-23.72,324.06 105.54,1084.29 145.92,1454.06 46.58,426.55 156.78,1038.85 151.8,1446.63l36.69 -58.94 -67.25 -2950.88 -138.61 0c-26.94,15.81 -11.3,13.84 -74.71,32.17 -103.35,29.89 28.48,2.14 -61.23,2.37z"/>
    <path class="fil0" d="M3041.73 3195l85.64 56.32 10.4 4.96c-4.17,-5.97 -10.07,-22.91 -12.2,-18.11 -2.17,4.91 -10.43,-14.62 -13.39,-17.97 -9.66,-10.92 -45.23,-47.41 -50.43,-52.26l-1703.32 -1413.38c-104.29,-78.98 -180.3,-165.08 -283.61,-245.25 -100.24,-77.79 -182.38,-145.25 -278.23,-218.06 -117.83,81.51 -104.02,97.72 -172.99,213.93l1200.02 848.1c222.24,155.08 408.67,267.06 611.61,419.74l606.5 421.98z"/>
    <path class="fil0" d="M3717.41 3017.34l12.88 -12.01 1364.47 -2593.9 -231.94 -129.58 -85.5 141.21c-32.4,73.01 -45.25,114.06 -71.4,179.8l-434.29 1034.45c-96.57,222.58 -545.21,1224.24 -554.22,1380.03zm-29.38 41.82l-10.05 8.36c11.75,116.7 3.06,17.76 10.05,-8.36zm-51.6 90.87l35.53 11.42c-21.72,-81.48 10.53,-88.49 -35.53,-11.42z"/>
    <path class="fil0" d="M3906.43 3782.2l2474.28 1682.09c50.59,-75.16 98.08,-144.28 142.01,-240.36l-2605.54 -1465.79 -33.11 -34.17 -28.61 -1.51 50.97 59.74z"/>
    <path class="fil0" d="M3233.93 3733.55l-89.17 67.88c-56.29,5.9 -17.98,-32.19 -47.28,21.77 -34.1,41.21 -9.67,21.29 -52.17,55.42 -28.62,22.98 -34.28,18.64 -64.75,33.25l-2082.29 1662.12c-74.59,63.39 -78.14,45.77 -137.13,118.69 63.58,116.59 104.48,117.54 181.21,208.26l1767.19 -1686.93 94.02 -109.2c42.13,-36.16 58.32,-45.31 103.93,-82.63 84.28,-68.97 118.86,-99.03 212.41,-168.7l16.26 -9.86 22.25 -28.01 84.54 -52.29c3.92,-7.11 8.76,-12.95 9.3,-22.49 0.52,-9.01 23.52,-9.49 22.94,-20.8l-48.51 -32.04 7.25 45.56z"/>
    <path class="fil1" d="M3744.84 3523.92l8.89 -16.61c-119.74,-52.6 -37.76,10.17 -115.75,-123.41l-40.54 -60.53c-114.67,14.33 -29.47,-19.4 -111.33,55.32 8.65,-133.45 31.6,-100.41 -4.94,-234.16 0.55,-53.26 4.52,-53.47 -2.14,-107.73 -9.13,-74.49 -19.94,-67.23 -25.71,-80.74l-36.69 58.94 3.87 47.6c63.77,282.7 -81.75,188.37 -41.99,310.15 -68.92,-56.42 -48.03,-5.78 10.63,-120.9l24.3 -55.74 -34.95 17.46 -6.57 31.04 -59.11 45.39 -14 -35.4 -39.08 -10.38 -17.38 -18.28 -37.53 -32.67c-47.12,2.37 -36.9,13.82 -32.57,-32.51l-70.07 -29.14 19.55 -13.58 45.79 30.42c-56.57,-126.77 23.69,59.6 -24.76,-83.21l58.61 38.31 -15.05 -81.86c16.76,87.95 14.7,21.34 43.57,59.62l40.07 -51.5 28.8 -28.19c-8.53,-77.07 -17.25,-29.98 35.91,-67.55l-39.85 -49.54c6.32,95.72 12.81,34.56 -41.07,76.88 30.52,70.29 21.51,15.9 -16.13,33.67 -3.77,3.8 -10.09,10.32 -11.97,10.71 -1.58,0.31 -11.64,2.7 -13.25,2.82 -3.73,0.28 -24.65,-16.07 -31.45,-23.95 7.29,50.28 17.63,37.45 -34.1,35.67 -5.5,60.52 10.52,41.53 -49.76,55.5 6.79,39.21 14.93,33.58 -22.12,19.62 47.46,88.31 64.71,100.23 173.01,161.2 -63.53,-12.88 -18.79,2.72 -100.9,-40.14 -50.99,-26.61 -32.9,-20.9 -85.33,-48.58 5.2,4.85 40.77,41.34 50.43,52.26 2.96,3.35 11.22,22.88 13.39,17.97 2.13,-4.8 8.03,12.14 12.2,18.11l31.43 51.87 54.78 56.53c2.54,2.94 14.12,21.91 16.06,16.48 2.19,-6.12 11.74,12.7 18.31,18.3l38.09 -144.13c14.28,127.75 9.12,166.94 -135.45,163.97l-83.56 -1.53 104.41 24.76 -7.18 -92.56 -67.72 3.62 67.72 25.55 11.28 -88.14c-16.27,-2.62 -181.23,-30.66 -58.57,-39.68l-85.64 -56.32c7.42,7.31 20.17,26.72 21.96,30.58 42.84,91.89 36.7,-35.07 -7.55,22.14l-14.04 44.68c5.28,6.59 13.45,16.82 15.65,19.92l17.36 34 -2.93 40.69 -45.38 19.46 -14.22 47.67c29.76,18.37 56.02,54.82 180.35,23.21l123.37 -89.21c3.1,-11.43 11.53,-12.66 17.76,-18.54 48.48,215.26 -36.61,-109.22 -17.75,157.07l-128.25 -15.12 0.74 19.29c46.59,48.33 56.95,59.1 113.88,114.38l8.14 -9.44c74.93,-31.8 64.39,-49.95 50.51,28.9 78.78,12.55 77.57,19.5 187.12,29.86 -51.66,98.24 -61.22,56.11 -17.41,166.83l55.5 -155.63 22.39 -4.53c-89.45,-84.81 -12.22,8.51 -31.31,-72.61 -0.95,-4 -3.65,-16.39 -4.45,-19.85 -0.89,-3.83 -3.32,-14.78 -6.61,-21.53 83.03,32.35 54.95,-8.22 66.45,71.47l25.35 -66.43c25.03,-30.4 -24.35,-32.49 40.13,8.54 8.85,-10.61 32.47,-56.96 46.35,-76.88zm-373.43 195.81l43.2 125.58 -29.42 50.97 28.62 -14.99 0.8 -35.98c1.63,-1.2 90.17,28.17 40.32,-85.04 -38.53,-87.46 -13.42,-33.58 -95.68,-59.06l12.16 18.52zm93.71 180.77l-9.23 90.61c17.19,38.79 31.34,40.86 55.97,64.42l-5.54 -134.87 -28.66 -67.78 -12.54 47.62zm-114.81 -51.73l53.44 0 -53.44 0zm-15.72 0l-44.47 -12.34 -23.74 -13.6 -6.88 14.44 50.51 12.12 17.32 3.96 -5.2 22.47 46.22 17.72 -41.02 -40.19 7.26 -4.58zm215.49 -308.96l16.48 47.41 -31.22 5.28 -25.41 10.79c-70.34,41.5 -34.44,8.23 -58.2,-12.82 -85.93,-16.82 -32.66,5.86 -79.12,-66.37 -0.33,-69.16 5.84,-86.51 26.77,-138.21l103.85 18.42c4.2,-7.58 15.62,7.09 23.37,10.76l12.48 2.79 14.61 50.82 62.78 67.59c-30.53,-15.46 50.18,-63.79 -66.39,3.54z"/>
    <path class="fil2" d="M3361.33 3664.68c13.88,-78.85 24.42,-60.7 -50.51,-28.9l50.51 28.9 -2.08 36.53c82.26,25.48 57.15,-28.4 95.68,59.06 49.85,113.21 -38.69,83.84 -40.32,85.04l-0.8 35.98 9.87 19.21 41.44 0 12.54 -47.62 28.66 67.78 46.02 0 20.01 -29.76 33.44 -10.33 50.42 -9.87c-3.82,-46.52 8.38,-33.52 -40.34,-35 -34.9,-33.85 -32.82,85.15 -28.64,-51.03 39.69,-47.08 21.91,50.24 38.5,-19.01 1.93,-8 14.71,-1.46 20.45,-5.58l29.35 14.58c-34.56,-76.25 64.13,-26.53 -71.87,-83.89 4.53,-1.91 12.14,-3.66 14.11,-4.31 2.04,-0.7 11.99,-3.77 14.52,-4.64l177.4 -13.59c-59.28,-56.44 -61.33,-35.06 -40.81,-66.27l53.15 31.26 0 -33.22c-51.61,-2.45 -42.78,9.51 -22.05,-38.63l7.21 -27.43 -62.35 -10.02c-13.88,19.92 -37.5,66.27 -46.35,76.88 -64.48,-41.03 -15.1,-38.94 -40.13,-8.54l-25.35 66.43c-11.5,-79.69 16.58,-39.12 -66.45,-71.47 3.29,6.75 5.72,17.7 6.61,21.53 0.8,3.46 3.5,15.85 4.45,19.85 19.09,81.12 -58.14,-12.2 31.31,72.61l-22.39 4.53 -55.5 155.63c-43.81,-110.72 -34.25,-68.59 17.41,-166.83 -109.55,-10.36 -108.34,-17.31 -187.12,-29.86z"/>
    <path class="fil3" d="M3674.14 3346.38l-29.25 -31.48 -34.19 -31.84 -3.08 -23.24 3.08 23.24c-18.71,56.91 -26.06,42.61 34.19,31.84 -3.1,44.47 -14,35.13 29.25,31.48 25.07,54.77 -24.12,24.07 60.22,66.53l45.58 9.86 -45.58 -9.86c-27.71,-55.48 41.89,-5.25 -60.22,-66.53zm124.72 44.94l-4.33 -55.17 -18.06 -18.1 19.96 -24.33c-94.52,29.65 -36.19,-13.88 -94.33,57.41 52.04,21.95 30.39,8.93 96.76,40.19zm48.18 77.91l4.01 -31.31 -13.98 7.92 9.97 23.39zm-252.55 -276.84c-49.06,32.49 -41.31,-49.56 -39.1,57.51l20.47 -39.64 18.63 -17.87zm57.11 48.97c-6.42,-99.12 22.61,-79.77 -65.79,-79.77l7.81 64.01 57.98 15.76 -1.05 19c1.51,0.02 1.78,53.99 50.72,-69.26l-49.67 50.26zm117.88 -46.46l43.41 14.08 32.39 -30.11 80.81 -141.34c-0.11,0.08 -72.18,71.79 -89.95,17.58 -3.1,-9.43 -13.52,-11.32 -18.4,-18.52l-50.38 63.28 31.03 -66.28 -16.4 46.21c-68.21,-11.96 -44.33,6.97 -51.7,-74.47l-12.88 12.01c-77.76,-46.61 -54.24,25.28 -48.06,-96.11l-16.15 -31.74 -40.96 74.64 13.28 23.53c65.01,21.92 42.05,-0.31 52.46,79.86l10.05 -8.36c67.32,17.61 47.06,-3.78 52.56,70.86l-8.33 1.18 -34.59 21.98c5.02,52.92 -8.6,39.66 46.99,31.74 12.8,-25.69 5.73,-23.33 26.1,-49.75l-1.28 59.73zm82 -39.71c93.74,70.28 36.71,31.95 17.2,49.85l-6.28 29.45 38.06 3.84 52.22 -73.16c-8.32,-5.9 -20.18,-14.61 -23.36,-19.79 -62.68,-102.17 36.93,-49.82 149.62,-202.35 -103.96,59.46 -160,61.5 -227.46,212.16zm92.04 21.58l-53.02 45.36c64.65,-10.5 53.02,10.01 53.02,-45.36z"/>
    <path class="fil4" d="M3241.52 3817.52l1.43 -54.2c9.35,-4.56 26.15,-8.46 30.8,-9.07 1.95,-0.26 11.03,-0.76 13,-0.91 1.78,-0.13 10.21,0.69 11.79,0.66 2.87,-0.05 2.8,85.41 21.43,1.97 0.81,-3.64 7.43,0.06 11.02,-0.79 -75.57,-105.81 -40.67,-67.04 -233.16,-93.04l-10.45 30.54 1.25 38.69 8.71 -4.87 101.68 -6.64c5.18,-9.96 24.4,6.94 34.91,13.69l-7.25 -45.56 48.51 32.04c0.58,11.31 -22.42,11.79 -22.94,20.8 -0.54,9.54 -5.38,15.38 -9.3,22.49l-84.54 52.29 -22.25 28.01 1.96 35.5c6.42,-4.32 16.18,-19.58 18.87,-13.55 3.62,8.11 14.11,-11.34 36.18,-24.23 27.81,-16.25 7.22,-9.45 48.35,-23.82zm-13.97 119.16l23.2 -43.89 0.84 -37.52 -72.22 87.25 48.18 -5.84zm-129.72 -301.4l105.01 -38.13c0.86,3.32 -0.66,9.29 -0.74,10.26 -0.08,0.97 -1.09,8.97 -1.17,10.13 -6.35,92.37 -45.46,-52.55 1.91,45.26 41.67,-22.18 51.85,-97.13 157.73,91.91l43.18 94.06 -53.44 0 -15.72 0 -7.26 4.58 41.02 40.19 16.84 2.74 29.42 -50.97 -43.2 -125.58 -68.73 -74.51c-56.93,-55.28 -67.29,-66.05 -113.88,-114.38 -68.32,0.76 -138.2,-1.76 -206.04,3.47 -17.48,1.35 -75.08,7.45 -90.88,11.01 -51.32,11.52 -43.65,17.08 -67.36,31.74l121.97 21.11 59.28 -6.03 168.94 -5.77 -140.59 39.39 -11.01 33.05 74.72 -23.53z"/>
    <path class="fil2" d="M3753.73 3507.31l89.3 2.33 4.01 -40.41 -9.97 -23.39 -17.08 -19.57 0.17 -57.61 -3.09 -8.21 -20.33 -63.48 -11.89 6.88 9.68 32.3 4.33 55.17 -18.92 31.45 -45.58 -9.86c-84.34,-42.46 -35.15,-11.76 -60.22,-66.53 -43.25,3.65 -32.35,12.99 -29.25,-31.48 -60.25,10.77 -52.9,25.07 -34.19,-31.84l-3.08 -23.24 42.93 0.54 1.05 -19 -57.98 -15.76 -17.76 -15.34 -20.47 39.64c-2.21,-107.07 -9.96,-25.02 39.1,-57.51l-0.67 -42.83 -49.79 -4.49 -16.36 -0.54 -46.5 0c36.54,133.75 13.59,100.71 4.94,234.16 81.86,-74.72 -3.34,-40.99 111.33,-55.32l40.54 60.53c77.99,133.58 -3.99,70.81 115.75,123.41z"/>
    <path class="fil3" d="M3242.95 3763.32l-1.43 54.2 24.8 -18.07 23.8 36.98 44.47 12.34 15.72 0 53.44 0 -43.18 -94.06c-105.88,-189.04 -116.06,-114.09 -157.73,-91.91 -47.37,-97.81 -8.26,47.11 -1.91,-45.26 0.08,-1.16 1.09,-9.16 1.17,-10.13 0.08,-0.97 1.6,-6.94 0.74,-10.26l-105.01 38.13 0 26.86c192.49,26 157.59,-12.77 233.16,93.04 -3.59,0.85 -10.21,-2.85 -11.02,0.79 -18.63,83.44 -18.56,-2.02 -21.43,-1.97 -1.58,0.03 -10.01,-0.79 -11.79,-0.66 -1.97,0.15 -11.05,0.65 -13,0.91 -4.65,0.61 -21.45,4.51 -30.8,9.07zm-145.61 -36.82l-18.27 27.68 105.8 -17c-32.29,16.08 -16.09,28.87 -40.11,64.25l89.17 -67.88c-10.51,-6.75 -29.73,-23.65 -34.91,-13.69l-101.68 6.64zm-91.57 -134.36l-11.87 35.83 40.22 -2.21 140.59 -39.39 -168.94 5.77zm365.64 127.59l-12.16 -18.52 2.08 -36.53 -50.51 -28.9 -8.14 9.44 68.73 74.51z"/>
    <path class="fil3" d="M3675.53 3774.66l-46.95 37.33 39.6 79.45 44.92 0.1c-4.07,-9.57 -18.37,-48.98 -19.45,-55.67l35.19 -148.59 142.05 -12.44 19.29 -55.82 -68.15 14.2 -53.15 -31.26c-20.52,31.21 -18.47,9.83 40.81,66.27l-177.4 13.59c-2.53,0.87 -12.48,3.94 -14.52,4.64 -1.97,0.65 -9.58,2.4 -14.11,4.31 136,57.36 37.31,7.64 71.87,83.89zm220.55 -165.63l11.47 -48.85 -107.57 1.19c-20.73,48.14 -29.56,36.18 22.05,38.63l74.05 9.03zm-58.09 125.16l20.95 -52.68c-124.6,57.32 -93.87,16.82 -20.95,52.68zm-222.12 101.51l30.31 -75.62c-5.74,4.12 -18.52,-2.42 -20.45,5.58 -16.59,69.25 1.19,-28.07 -38.5,19.01 -4.18,136.18 -6.26,17.18 28.64,51.03zm-29.33 -129.96l22.39 -4.53 -22.39 4.53z"/>
    <path class="fil4" d="M3769.48 3194.9l-24.82 -9.98c-55.59,7.92 -41.97,21.18 -46.99,-31.74l-25.71 8.27 -35.53 -11.42 -44.47 -2.68 -6.15 14.24c88.4,0 59.37,-19.35 65.79,79.77l49.67 -50.26c-48.94,123.25 -49.21,69.28 -50.72,69.26l-42.93 -0.54 3.08 23.24 34.19 31.84 29.25 31.48c102.11,61.28 32.51,11.05 60.22,66.53l45.58 9.86 18.92 -31.45c-66.37,-31.26 -44.72,-18.24 -96.76,-40.19 58.14,-71.29 -0.19,-27.76 94.33,-57.41l-1 -5.72 7.84 -36.11 28.32 -16.65 37.09 -30.2 -17.2 -49.85 -6.2 23.68 -32.39 30.11c-122.37,82.98 -72.1,149.8 -97.94,91.21 -2.28,-5.16 -7.82,25.08 -19.32,24.93l-27.71 -40.74c53.4,-39.41 48.18,-31.72 101.56,-89.48z"/>
    <path class="fil3" d="M3526.6 3415.07c-7.75,-3.67 -19.17,-18.34 -23.37,-10.76l-103.85 -18.42c-20.93,51.7 -27.1,69.05 -26.77,138.21 94.15,-10.61 44.54,17.13 102.6,-27.1 71.49,-54.47 21.65,-11.72 51.39,-81.93zm-74.87 175.4c23.76,21.05 -12.14,54.32 58.2,12.82l-52 -22.87c-0.63,1.02 -3.97,6.81 -6.2,10.05zm98.35 -50.66l-14.74 52.69 31.22 -5.28 -16.48 -47.41c116.57,-67.33 35.86,-19 66.39,-3.54l-62.78 -67.59 -14.61 -50.82 14.61 50.82c-106.15,32.81 -22.7,39.95 -21.61,43.84 25.27,90.85 45.04,-57.76 18,27.29z"/>
    <path class="fil3" d="M3796.74 3296.97l20.33 63.48 77.14 -0.93 -74.05 9.14 -0.17 57.61c84.73,-13.61 117.79,-45.04 140.75,28.54 130.23,40.37 46.2,21.33 85.69,-34.21 -148.87,-1.79 -64.74,20.44 -109.85,-55.97l16.1 -10.17 -55.86 -32.39 8.53 -35.87c-67.24,-1.54 -49.74,16.23 -57.78,-47.36 -53.56,-1.24 -33.49,-12.39 -50.83,45.91l0 12.22z"/>
    <path class="fil4" d="M3368.14 3107.18l-43.42 0c80.68,135.18 -49.45,-5.03 25.62,54.25 6.68,53.12 19.84,53.54 -24.45,21.66l-32.31 -21.5 0.49 57.9c35.35,27.39 41.67,5.75 4.74,35.11l14 35.4 59.11 -45.39 6.57 -31.04 20.17 -87.7 14.78 70.24 -24.3 55.74c-58.66,115.12 -79.55,64.48 -10.63,120.9 -39.76,-121.78 105.76,-27.45 41.99,-310.15l-29.67 0 0.68 65.13 -23.37 -20.55z"/>
    <path class="fil2" d="M3169.2 3308.15l16.74 -17.15 -11.28 88.14 0 -29.17 7.18 92.56 -20.85 -23.23c144.57,2.97 149.73,-36.22 135.45,-163.97l-38.09 144.13c-6.57,-5.6 -16.12,-24.42 -18.31,-18.3 -1.94,5.43 -13.52,-13.54 -16.06,-16.48l-54.78 -56.53zm23.73 169.2l-4.87 34.2 128.25 15.12c-18.86,-266.29 66.23,58.19 17.75,-157.07 -6.23,5.88 -14.66,7.11 -17.76,18.54l-123.37 89.21z"/>
    <path class="fil3" d="M3250.75 3892.79l-23.2 43.89 -16.47 37.09 57.55 -59.85 41.38 -64.53 -50.51 -12.12 -8.75 55.52zm91.66 30.79c-63.45,-10.89 -43.41,-20.53 -39.82,50.19l39.82 -50.19zm10.37 -11.99l-38.54 52.71c69.76,15.04 48.28,23.97 38.54,-52.71zm9.7 147.9l17.31 39.91c62.18,-51.96 46.3,-106.51 43.89,-198.9l-9.87 -19.21 -28.62 14.99 -22.71 163.21zm-99.36 -143.08l-42.16 49.79c54.02,0 35.36,11.67 42.16,-49.79z"/>
    <polygon class="fil2" points="6878.05,3301.18 6984.09,3295.66 6984.09,3082.03 6948.86,3082.03 "/>
    <path class="fil0" d="M3372.61 3524.1c46.46,72.23 -6.81,49.55 79.12,66.37 2.23,-3.24 5.57,-9.03 6.2,-10.05l52 22.87 25.41 -10.79 14.74 -52.69c27.04,-85.05 7.27,63.56 -18,-27.29 -1.09,-3.89 -84.54,-11.03 21.61,-43.84l-14.61 -50.82 -12.48 -2.79c-29.74,70.21 20.1,27.46 -51.39,81.93 -58.06,44.23 -8.45,16.49 -102.6,27.1z"/>
    <path class="fil1" d="M3793.86 3750.51l-0.58 39.23 39.33 23.17 35.96 0.73c2.35,-48.82 -10.37,-38.46 37.86,-31.44l-50.97 -59.74 3.48 -40.95 -20.95 52.68 19.55 9.42 -24.93 41.93 -38.75 -35.03zm100.38 -94.45l-4.06 -37.04 -19.29 55.82 17.54 20.91 5.81 -39.69zm63.45 -49.82c-27.58,-54.51 42.94,-36.96 -50.14,-46.06l-11.47 48.85 43.51 20.85 18.1 -23.64zm1.42 115.67l-35.98 -33.16 -39.06 35.22 33.11 34.17c4.07,-48.75 -8.8,-35.46 41.93,-36.23zm-16.09 -58.03l36 31.94 -36 -31.94z"/>
    <path class="fil1" d="M3097.48 3823.2c-31.87,17.55 -32.43,10.21 -68.5,38.91 -37.41,29.76 -22.14,19.25 -48.42,49.76 30.47,-14.61 36.13,-10.27 64.75,-33.25 42.5,-34.13 18.07,-14.21 52.17,-55.42zm-387.94 390.81l410.36 -360.53c-93.55,69.67 -128.13,99.73 -212.41,168.7 -45.61,37.32 -61.8,46.47 -103.93,82.63l-94.02 109.2zm305.8 -392.73c52.97,4.73 42.41,16.8 32.79,-35.21l-32.79 35.21zm-27.5 -32.53l32.14 -33.09 -32.14 33.09z"/>
    <path class="fil1" d="M3361.56 3040.18l29.42 -35 -20.43 -35.41 -50.11 19.43c14.04,98.37 -5.14,25.36 41.12,50.98zm-95.1 21.23c2.33,47.17 -10.03,35.39 37.31,35.09l20.84 -5.64c4.15,-60.05 20.56,-49.43 -34.11,-46.05 9.95,43.38 16.19,35.57 -24.04,16.6zm-36.82 70.66l38.97 -1.89c-0.55,-45.36 10.63,-33.53 -35.74,-33.23l-3.23 35.12z"/>
    <path class="fil1" d="M3803.13 3923.04c24.67,62.92 12.13,48.16 59.07,82.14 -36.32,-117.68 -7.73,-42.66 -59.07,-82.14zm203.17 198.26l-170.82 -222.22c35.07,56.37 38.57,68 71.43,119.77 7.12,11.21 29.74,47.16 38.71,56.68 40.29,42.78 8.47,11.89 60.68,45.77zm-213.79 -106.03c10.41,-59.27 23.04,-49.49 -34.35,-33.18 -4.03,45.9 -13.72,33.18 34.35,33.18z"/>
    <path class="fil1" d="M3118.91 114.31l-7.39 -74.59c89.71,-0.23 -42.12,27.52 61.23,-2.37 63.41,-18.33 47.77,-16.36 74.71,-32.17l-138.15 0 2.21 34.54c-107.02,-36.99 2.37,69.91 7.39,74.59z"/>
    <polygon class="fil1" points="3664.55,114.36 3694.52,21.74 3819.53,30.09 3819.53,5.18 3668.72,5.18 "/>
    <path class="fil2" d="M49.62 4119.24c53.64,-114.7 11.62,4.73 104.53,-98.36l-141.17 47.68 36.64 50.68z"/>
   </g>
   <circle class="fil5 str0" cx="3489.58" cy="3473.69" r="664.37"/>
  </g>
 </g>
</svg>
