<?xml version="1.0" encoding="UTF-8"?>
<!DOCTYPE svg PUBLIC "-//W3C//DTD SVG 1.1//EN" "http://www.w3.org/Graphics/SVG/1.1/DTD/svg11.dtd">
<!-- Creator: CorelDRAW 2021.5 (評估版本) -->
<svg xmlns="http://www.w3.org/2000/svg" xml:space="preserve" width="70mm" height="70mm" version="1.1" style="shape-rendering:geometricPrecision; text-rendering:geometricPrecision; image-rendering:optimizeQuality; fill-rule:evenodd; clip-rule:evenodd"
viewBox="0 0 7000 7000"
 xmlns:xlink="http://www.w3.org/1999/xlink"
 xmlns:xodm="http://www.corel.com/coreldraw/odm/2003">
 <defs>
  <style type="text/css">
   <![CDATA[
    .fil0 {fill:#6B3C82}
   ]]>
  </style>
 </defs>
 <g id="圖層_x0020_1">
  <metadata id="CorelCorpID_0Corel-Layer"/>
  <g id="_1442381345968">
   <path class="fil0" d="M159.02 4554.39c73.37,6.06 487.99,-137.01 556.72,-163.2 70.99,-27.05 100.42,-25.95 174.05,-44.43l2158.53 -659.41c17.27,-63.86 17.42,-76.08 -10.42,-137.48 -109.84,-12.81 -1351.46,60.13 -1505.69,65.82 -350.97,12.98 -1193.4,78.24 -1508.32,73.13 -12.37,68.58 95.8,714.83 122.47,820.37l12.66 45.2z"/>
   <path class="fil0" d="M4460.53 6898.92c69.16,-29.54 128.53,-49.67 195.87,-71.22l390.37 -150.75c-6.22,-84.85 -920.7,-1895.42 -999.42,-2047.47l-333.1 -671c-33.25,0.28 -8.7,-2.4 -41.58,4.19l-84.48 35.17 600.93 2783.49c16.53,79.75 10.92,125 51.85,183.7l219.56 -66.11z"/>
   <path class="fil0" d="M3959.1 3360.48l13.99 114.15c82.91,25.12 622.85,-5.7 747.92,-15.61l1314.1 -51.59c192.18,-4.74 857.72,-45.56 956.31,-32.64 18.83,-107.29 -109.15,-808.86 -137.62,-869.42 -98.14,-14.38 -192.44,73.07 -369.04,102.56 -141.38,23.6 -214.6,74.85 -361.48,106.52 -57.42,12.39 -120.13,23.53 -175.42,45.26 -235.87,92.73 -200.77,57.32 -360.49,106.06l-1628.27 494.71z"/>
   <path class="fil0" d="M-6.7 3346.4c73.57,29.23 1636.2,101.37 1899.68,109.47 125.11,3.84 270.84,22.09 383.43,26.22 123.59,4.52 667.94,21.54 758.08,48.46 12.17,-52.54 17.06,-75.89 24.56,-126.79 -122.17,-63.54 -1216.89,-383.09 -1459.7,-462.22 -174.82,-56.98 -1362.1,-440.49 -1443.69,-438.23 -42.66,115.25 -124.04,665.38 -162.36,843.09z"/>
   <path class="fil0" d="M727.35 5652.6c67.51,-71.36 215.55,-176.84 294.22,-235.63 216.4,-161.69 2049.7,-1539.83 2117.45,-1620.41l-64.49 -90.31 -163.54 56.7c-3.61,1.63 -8.47,3.97 -12.06,5.71l-180.55 80.1c-254.74,121.06 -601.16,246.78 -869.34,365.2 -56.34,24.88 -108.45,46.87 -168.79,72.51 -119.48,50.77 -219.94,94.49 -350.26,148.33 -116.89,48.28 -232.33,95.12 -349.84,149.99l-684.89 292.82c18.67,89.1 145.07,294.32 200.43,389.16 47.41,81.21 167.8,317.09 231.66,385.83z"/>
   <path class="fil0" d="M3982.76 3542.21l-23.56 111.17c94.81,52.96 1226.09,404.32 1429.61,468.71 397.67,125.81 1095.86,370.5 1446.96,462.21 30.55,-71.36 159.78,-802.11 154.94,-851.73 -113.35,-45.42 -2253.94,-133.42 -2631.7,-177.52 -57.35,-6.69 -342.88,-20.68 -376.25,-12.84z"/>
   <path class="fil0" d="M1558.09 6437.72l57.99 34.25c130.89,-225.24 298.97,-444.42 431.23,-666.02 300.76,-503.93 776.78,-1164.74 1069.5,-1659.93 25.41,-42.99 91.94,-141.18 108.93,-176.34 28.17,-58.27 79,-35.23 -80.37,-129.34l-829.53 783.45c-89.1,77.5 -174.78,168.36 -268.17,253.02l-1101.62 1029.1 612.04 531.81z"/>
   <path class="fil0" d="M5461.72 602.36l-38.86 -22.94c-144.76,187.65 -1628.26,2498.42 -1641.13,2553.01l88.32 83.43 1929.87 -1802.17c83.03,-71.48 206.37,-182.72 280.69,-274.48 -61.74,-42.07 -604.1,-507.94 -618.89,-536.85z"/>
   <path class="fil0" d="M5403.85 6448.78c13.35,-9.37 32.7,-25.95 44.28,-35.37l406.08 -340.02c53.24,-45.94 116.54,-88.68 174.41,-150.58l-2174.36 -2073.98 -107.9 89.94 1605.02 2541.67 52.47 -31.66z"/>
   <path class="fil0" d="M1874.64 6624.66l51.42 30.36c26.83,-0.6 682.64,244.09 760.94,277.97 39.48,-91.11 75.76,-283.86 98.38,-376.93 203.86,-838.93 405.49,-1749.53 615.79,-2570.81l-110.28 -48.75c-62.88,70.03 -630.66,1170.39 -707.9,1329.55 -162.67,335.23 -587.61,1077.64 -708.35,1358.61z"/>
   <path class="fil0" d="M940.35 1124.35c38.46,74.97 1391.45,1323.54 1647.99,1566.26 180.58,170.84 379.19,339.27 554.56,519.57 35.16,-17.83 71.94,-48.67 106.93,-86.3 -118.88,-127.09 -1555.55,-2450.68 -1653.69,-2556.65 -93.6,88.81 -215.04,184.49 -326.76,275.43 -60.94,49.59 -103.4,91.78 -165.54,138.87 -52.4,39.71 -117.23,92.35 -163.49,142.82z"/>
   <path class="fil0" d="M3083.66 33.55c2.69,67.02 5.22,116.11 16.25,185.37 13.83,86.8 12.55,107.52 21.03,183.32l305.33 2459c16.43,131.26 -25.99,121.26 59.53,210.23 38.4,-21.66 19.33,-16.54 79.59,-7.34l108.26 -768.17c28.42,-259.62 58,-487.2 91.07,-752.04 37.07,-296.89 142.41,-1241.82 195.12,-1511.41 -31.61,-6.18 -790.73,-34.11 -876.18,1.04z"/>
   <path class="fil0" d="M3733.69 5495.2c-27.54,-258.55 -56.22,-499.28 -82.35,-748.51l-83.13 -742.34c-62.73,-20.23 -64.12,-18.17 -119.5,-17.92 -34.48,39.14 -144.56,957.71 -167.66,1127.99l-249.25 1889.89c43.62,-0.66 67.6,6.81 117.73,6.43 41.2,-0.31 67.43,-1.28 106.59,-0.52 79,1.54 152.66,-1.68 215.11,0.26 81.82,2.54 360.51,14.87 422.44,-7.6l-78.55 -758.99c-3.64,-33.62 -4.4,-67.25 -7.27,-106.07 -3.94,-53.09 -0.02,-13.69 -6.58,-52.42l-30.56 -275.43c-4.74,-26.36 -2.35,-6.07 -8.21,-38.12 -9.29,-50.83 -6.17,-46.67 -9.01,-92.62 -4.37,-70.73 -12.41,-114.69 -19.8,-184.03z"/>
   <path class="fil0" d="M1921.81 375.73l1018.82 2045.75c63.6,126.28 290.09,620.88 365.2,688.05 44.77,-18.18 53.26,-34.79 96.53,-52.83l-370.84 -1658.08c-13.62,-78.33 -16.82,-116.96 -40.59,-192.55l-168.77 -740.33c-18.84,-90.85 -49.48,-321.12 -114.39,-390.06 -134.29,73.76 -719.88,249.75 -785.96,300.05z"/>
   <path class="fil0" d="M3886.28 3237.41l68.58 86.82 1463.36 -589.38c318.94,-128.06 868.95,-377.59 1149.29,-476.7l180.26 -82.3c-18.34,-77.19 -380.67,-716.32 -426.25,-765.84 -215.85,188.96 -1525.21,1136.63 -1819.48,1356.46 -108.96,81.4 -558.59,404.12 -615.76,470.94z"/>
   <path class="fil0" d="M5119.08 400.03l-58.79 -34.71c-27.47,0.61 -701.51,-249.69 -756.97,-279.4l-691.83 2975 113.87 39.2c5.33,-6.41 13.2,-16.18 12.37,-13.8l1381.35 -2686.29z"/>
   <polygon class="fil0" points="6262.26,5680.92 6701.47,4925.12 3942.82,3711.42 3877.12,3824.15 "/>
   <path class="fil0" d="M291.63 2168.59c458.78,188.88 927.75,396.01 1380.14,591.75 453.53,196.25 947.76,384.15 1391.6,598.62l61.28 -121.83 -2392.08 -1827.33 -440.94 758.79z"/>
  </g>
 </g>
</svg>
