<?xml version="1.0" encoding="UTF-8"?>
<!DOCTYPE svg PUBLIC "-//W3C//DTD SVG 1.1//EN" "http://www.w3.org/Graphics/SVG/1.1/DTD/svg11.dtd">
<!-- Creator: CorelDRAW 2021.5 (評估版本) -->
<svg xmlns="http://www.w3.org/2000/svg" xml:space="preserve" width="70mm" height="70mm" version="1.1" style="shape-rendering:geometricPrecision; text-rendering:geometricPrecision; image-rendering:optimizeQuality; fill-rule:evenodd; clip-rule:evenodd"
viewBox="0 0 7000 7000"
 xmlns:xlink="http://www.w3.org/1999/xlink"
 xmlns:xodm="http://www.corel.com/coreldraw/odm/2003">
 <defs>
  <style type="text/css">
   <![CDATA[
    .fil0 {fill:#EED6E3}
   ]]>
  </style>
 </defs>
 <g id="圖層_x0020_1">
  <metadata id="CorelCorpID_0Corel-Layer"/>
  <g id="_1442384394816">
   <path class="fil0" d="M3591.46 2855.1c91.18,-179.19 486.66,-2299.04 612.49,-2613.8 115.97,3.74 177.22,22.65 257.18,67.93 -3.04,288.98 -517.18,1747.22 -625.95,2208.81 134.21,-106.84 174.31,-359.29 237.56,-508.6 39.55,-93.39 88.58,-156.23 127.19,-249.32 39.7,-95.73 63.15,-186.92 98.85,-270.96 151.27,-356.28 293.02,-743.39 461.19,-1064.08 147.05,11.2 176.01,38.15 265.09,91.54 -11.69,171.01 -180.36,413.3 -257.3,568.34 -80.05,161.3 -192.24,342.22 -289.8,522.78l-129.21 274.22c-102.92,220.49 -375.46,619.03 -414.09,816.61l183.14 -209.59c33.28,-55.83 45.17,-87.25 74.33,-141.69 208.02,-388.45 524.81,-755.61 745.38,-1152.27 72.91,-131.14 249.55,-428.33 353.69,-510.85 144.52,34.72 8.86,-7.23 119.91,74.41 52.78,38.8 62.26,43.54 110.87,68.8 -24.28,67.55 -35.14,98.43 -75.84,161.46l-219.27 277.77c-1.89,2.84 -6.16,10.56 -8.11,13.4 -2,2.91 -6.73,10.45 -8.89,13.41l-22.26 28.02c-69.99,83.13 -137.94,150.16 -197.81,236.85l-741.21 1001.09c-74.22,88.04 -134.39,184.92 -195.22,269.36 99.91,-35.09 335.26,-346.7 433.27,-435.88 4.74,-4.3 11.68,-10.39 16.4,-14.76l396.39 -445.01c206.87,-258.99 504.49,-535.22 734.69,-789.02 55.42,-61.1 38.73,-66.16 129.88,-89.89l196.96 180.05c-156.23,196.01 -830.22,796.38 -1070.69,1032.3 -203.87,200.02 -509.97,402.18 -683.28,626.37 170.1,-50.64 1104.68,-787.38 1211.76,-875.12 1.13,-0.93 562.74,-491.1 760.59,-538.35 64.24,111.7 109.75,85.06 151.52,238.49l-755.25 489.01c-77.06,41.65 -62.16,26.8 -135.22,79.54 -58.55,42.26 -66.01,50.81 -128.49,89.57 -180.82,112.19 -339.23,210.33 -514.1,326.52l-493.68 342.1c154.72,-35.98 393.64,-179.2 548.85,-254.15l797.49 -417.07c89.62,-48.92 174.58,-98.09 264.56,-139.68 110.71,-51.18 166.58,-70.35 269.85,-134.63 77.4,-48.18 222.42,-72.65 297.32,-148.48 42.23,131.28 9.91,9.15 63.53,130.95 28.58,64.93 22.79,91.18 62.68,147.2l-1709.81 727.69c-189.27,79.58 -397.32,158.53 -593.5,249.39 70.33,36.64 148.94,-12.79 259.38,-50.9l902.58 -279.53c81.54,-29.58 1125.63,-372.24 1199.17,-359.18 78.59,34.57 38.54,-59.26 82.37,109.67 66.6,256.71 -91.87,201.64 -614.02,325.9l-1268.93 283.2c-124.38,29.23 -199.98,68.96 -321.49,85.24l-313.02 59.2c-4.69,1.62 -14.71,4.51 -21.3,8.37 253.44,-2.54 484.45,-41.67 731.33,-74.06 124.45,-16.32 245.68,-34.49 357.52,-48.79l745.01 -92.79c138.66,-6.57 209.62,-27.17 362.64,-45.86 10.04,-1.23 359.53,-46.9 361.66,-46.73 116.56,9.16 73.89,4.21 92.25,119.6l1.52 167.77c-136,63.76 -2368.09,128.9 -2744.3,149.03 102.77,65.18 546.52,35.87 688.55,52.91 217.93,26.14 511.2,14.13 713.57,34.3 266.25,26.54 1067.86,14.62 1268.51,64.96l73.6 23.35c7.86,33.4 9.11,61.25 1.59,138.14 -20.63,210.96 -22.63,158.12 -456.03,99.63 -278.54,-37.59 -491.99,-73.05 -767.7,-99.35 -230.86,-22.02 -1394.63,-212.87 -1488.09,-165.98l647.83 129.41c174,36.85 462.62,102.46 649.35,157.63l659.53 149.71c129.05,23.21 203.31,44.6 335.7,70.41 134.64,26.25 205.85,56.96 318.41,85.07 -1.99,139.36 -19.3,143.12 -32.55,257.96 -534.06,-7.44 -1673.71,-562.66 -2277.15,-631.92l909.45 406.9c316.01,105.68 969.15,373.5 1247.23,526.7 -17.29,89.91 -21.16,94.08 -62.73,164.04 -15.98,26.92 -16.04,26.9 -38.53,56.04l-122.58 34.5c-14.94,-8.54 -35.92,-19.57 -60.06,-33.22 -54.11,-30.6 -84.47,-49.44 -138.09,-78.72l-832.12 -444.65c-45.05,-22.38 -90.54,-38.67 -128.63,-58.22l-727.99 -361.12c-130.69,-56.75 -136.51,-98.26 -298.38,-153.55 44.75,59.77 -2.55,7.9 54.02,54.61 148.48,122.61 317.14,203.17 471.24,308.28l267.47 167.03c105.61,65.06 174.62,116.62 285.19,182.12 222.46,131.79 972.61,569 1045.26,727.35 -35.66,65.65 -18.33,35.02 -63.85,91.07l-91.04 100.33c-200.31,-72.4 -334.4,-215.43 -496.99,-347.57 -160.09,-130.12 -322.17,-228.92 -484.75,-354.72l-279.31 -217.5c-5.59,-4.33 -54.67,-46.29 -68.38,-57.8 -58.91,-49.46 -58.61,-50.09 -126.36,-92.89 -113.45,-71.66 -156.4,-116.43 -249.12,-186.24 -92.79,-69.86 -174.55,-120.78 -259.92,-183.95 42.33,107.68 -7.87,25.26 83.7,113.23l1020.96 938.64c93.03,92.74 144.44,120.42 234.32,200.84l223.82 211.36c91.43,72.73 157.34,116.63 187.26,251.86 -62.56,65.64 -110.44,134.03 -166.36,145.41 -115.97,23.6 -19.53,16.97 -82.7,-17.18 -77.67,-41.99 -548.34,-588.16 -668.52,-707.4 -86.71,-86.02 -114.82,-154.03 -195.89,-240.24 -136.9,-145.6 -278.24,-258.14 -395.85,-411.92 -3.91,-5.11 -9.42,-12.47 -13.43,-17.47 -86.22,-107.41 -147.45,-223.91 -284.7,-275.64 17.98,133.73 341.78,491.8 453.63,636.65l768.84 1003.38c70.63,89.46 143.71,158.44 154.54,292.48 -132,33.52 -82.98,58.67 -194.79,119.68 -194.21,-90.39 -403.47,-552.1 -542.52,-761.88 -66.54,-100.38 -123.14,-156.45 -175.91,-260.77 -134.65,-266.25 -339.35,-556.84 -497.9,-809.24l-182.22 -249.96c9.07,221.79 178.49,373.44 256.79,549.58 28.49,64.09 18.92,67.76 54.96,132.12 29.81,53.28 40.56,48.71 83.63,133.06l570.32 1110.64c25.64,47.72 44.16,81.53 78.77,139.97l79.98 134.68 -125.72 106.14c-67.44,39.43 -77.87,45.27 -164.67,62.26 -93.15,-174.79 -151.68,-369.06 -243.77,-565.56l-736.84 -1726.41c-2.95,-4.44 -8.98,-13.5 -14.32,-19.57 75.28,598.95 671.94,1830.03 695.18,2429.89 -123.32,14.88 -111.64,33.56 -262.79,35.45l-424.96 -1843.09c-43.65,-162.49 -94.41,-507.96 -159.61,-618.87 6.96,499.13 171.9,1405.11 240.66,1938.05 18.5,143.3 96.4,463.33 48.63,591.23l-257.56 32.65 -61.79 -290.17c-6.13,-121.48 -3.67,-252.34 -1.65,-374.23l-117.14 -2108.61 -39.68 677.7c0.7,265.23 -34.4,456.43 -29.58,684.79 9.37,445.02 -59.49,942.16 -55.6,1406.16 -151.65,1.47 -291.63,13.75 -311.28,-97.85 -21.29,-120.91 76.61,-572.84 86.09,-717.46l143.3 -1102.71c29.04,-222.7 107.7,-474.81 63.21,-685.83l-14.92 -43.25c0.99,230.66 -218.7,1145.25 -294.26,1416.09 -65.11,233.38 -99,482.56 -161.56,709.92 -81.27,295.32 -7.75,520.89 -388.29,364.99 2.5,-171.59 118.43,-443.39 168.96,-615.49l368.96 -1185.64c37.23,-114.78 190.1,-520.98 150.64,-596.54 -285.78,591.84 -496.12,1225.44 -762.13,1819.37 -63.19,141.09 -169.9,320.37 -172.97,458.63 -144.25,-9.83 -203.47,-25.23 -281.55,-102.22l19.12 -100.44c50.31,-168.63 125.52,-254.94 205.29,-423.38l418.63 -825.68c137.29,-241.72 352.38,-559.19 413.36,-828.21 -74.9,61.77 -105.79,151.54 -159.42,242.86l-1087.07 1650.73c-31.33,47.96 -49.99,86.97 -81.64,133.59 -174.33,-45.97 -135.61,-108.53 -265.49,-180.02l1096.36 -1444.39c110.6,-162.52 289.02,-303.99 344.05,-498.46 -250.79,188.37 -751.9,844.32 -1014.21,1103.3l-429.59 440.39c-94.54,104.31 -108.58,164.43 -237.16,203.78 -67.04,-48.57 -119.7,-122.83 -162.87,-190.94 48.93,-125.99 795.25,-789.73 867.34,-850.49 92.73,-78.14 128.44,-96.74 215.37,-189.09 9.96,-10.58 44.26,-47.9 45.03,-48.68l31.19 -31.28c6.6,-6.21 26.25,-23.37 33.11,-29.31 1.09,-0.93 45.41,-36.52 51.5,-41.76 6.85,-5.9 26.59,-22.76 33.14,-28.96 92.36,-87.33 427.36,-348.72 472.85,-460.43 -118.42,33.95 -158.83,96.38 -242.27,162.64l-1196.16 919.67c-47.56,33.38 -25.01,15.28 -58.76,35.85l-75.92 47.77c-138.11,102.24 -224.72,210.85 -397.63,272.05 -61.17,-115.42 -115.94,-77.57 -146.11,-231.74 107.64,-119.58 1489.66,-987.7 1648.4,-1083.5 122.65,-74.02 489.09,-280.78 556.53,-366.38l-2170.11 1119.53c-75.4,40.18 -90.31,54.34 -195.6,62.27 -55.25,-83.53 -84.81,-117.42 -96.37,-262.19 481.92,-263.11 2058.85,-802.8 2342.41,-1017.71 -138.38,12.9 -172.36,47.94 -278.82,92.61l-1861.45 565.85c-143.85,60.08 -144.2,59.63 -343.64,60.23 -18.77,-126.65 -38.75,-98.21 -41.32,-254.09 165.99,-72.87 421.28,-104.65 624.49,-158.06 206.33,-54.23 420.74,-82.41 640.42,-138.95 224.43,-57.76 1168.49,-234.63 1287.63,-296.81 -27.83,-13.97 -2323.95,246.72 -2609.04,325.17 -31.8,-121.48 -27.09,-190.88 -31.04,-324.73 209.58,-9.18 383.17,-33.66 622.36,-31.05l706.93 -34.71c445.96,-55.01 899.97,-32.22 1372.05,-60.08 -90.87,-48.97 -2396.37,-141.73 -2704.42,-147.31 3.67,-150.33 13.55,-213.53 36.05,-349.96 215.01,117.77 2212.9,318.97 2426.17,317.3 -101.55,-67.89 -1770.78,-409.26 -2100.52,-485.67 -123.12,-28.54 -186.46,-74.01 -264.41,-34.73 5.65,-269.45 -3.81,-379.33 250.65,-292.81 13.11,4.46 111.76,44.4 133.86,53.23 272.86,108.98 601.53,172.39 879.24,270.89l1189.75 359.88c-225.56,-166.42 -691.98,-307.44 -971.16,-422.1l-271.77 -132.24c-150.47,-67.05 -905.71,-394.27 -1028.08,-405.24 3.32,-194.06 33.52,-157.64 89.68,-292.29 363.04,72.58 1243.19,646.18 1671.67,836.79 184.9,82.25 400.35,234.59 581.55,269.19l-510.93 -342.79c-49.83,-36.07 -77.15,-54.2 -128.87,-86.38l-94.43 -58.47c-459.02,-296.25 -925.26,-555.55 -1355.93,-880.84l147.28 -235.17c144.14,32.46 134.37,84.9 254.63,169.35l979.69 728.11c224.48,149.57 518.7,460.16 732.83,543.8 -35.65,-97.37 -907.39,-857.71 -1099.02,-1046.78 -148.59,-146.62 -609.87,-496 -645.07,-663.84 249.66,-362.56 343.99,-1.78 682.82,346.36l432.09 471.66c185.22,167.35 581.79,642.32 689.48,704 -46.13,-157.36 -398.32,-551.57 -500.11,-708.19l-615.27 -784.77c-107.92,-128.19 -190.9,-243.54 -259.8,-408.11 95.18,-55.79 137.49,-120.14 288.01,-122.71 49.42,199.17 529.11,830.23 659.53,1057.14l584.23 907.25c76.49,129.93 -31.19,43.37 94.22,123.54 -61.36,-211.74 -206.58,-353.82 -279.75,-557.96l-138.32 -239.19c-3.49,-5.67 -8.23,-13.37 -11.44,-19.25 -169.26,-309.64 -252.71,-567.74 -455.96,-909.49 -101.69,-171.01 -222.6,-344.72 -244.08,-551.6 115.92,-49.55 128.42,-83.84 291.59,-89.68 12.24,129.21 2.49,47.95 44.18,145.74l512.88 1196.26c129.25,264.15 238.04,711.92 406.32,932.81 -29.62,-255.27 -443.08,-1389.06 -549.82,-1786.13 -49.42,-183.81 -157.11,-447.3 -166.81,-609.91 111.91,-59.21 163,-64.48 320.67,-62.23 -47.95,103.41 310.46,1449.8 359.08,1686.12 53.15,258.44 159.42,571.07 158.36,836.37l14.78 -292.02c-125.58,-768.6 -185.23,-1540.18 -300.02,-2294.61 79.22,-20.46 208.7,-29.92 320.87,-33.16 16.34,936.82 93.71,1846.15 127.65,2798.73 20.05,-39.48 141.13,-2607.13 147.42,-2794.67 128.8,3.57 205,1.23 323.77,30.07l-346.75 2671.27zm-251.78 -56.98c-0.99,71.91 41,3.14 15.76,-0.53 -0.3,-0.05 -14.65,-79.97 -15.76,0.53zm-154.11 -62.22c3.25,71.71 36.51,5.48 13.44,0.33 -0.28,-0.06 -17.17,-82.95 -13.44,-0.33zm-61.74 213.5l26.31 -18.8c0.17,-7.68 -80.78,-118.41 -93.3,-132.97 19.74,88.2 20.16,80.27 66.99,151.77zm-131.07 1.93c-25.62,-86.35 -99.09,-178.71 -186.73,-217.85 30.34,68.22 30.15,55.62 80.72,111.42 36.99,40.81 75.49,80.06 106.01,106.43zm-117.81 91.4c42.12,-34.62 34.05,-16.69 -51.45,-72.69 -74.81,-49 31.44,-4.1 -77.77,-47.96 38.94,49.37 76.48,79.22 129.22,120.65zm-164.42 345.49l-149.51 -28.92 149.51 28.92zm35.69 402.62c51.88,7.53 100.74,-31.52 18.54,-15.62 -9.35,1.81 -114.16,1.74 -18.54,15.62zm154.44 221.73c-89.98,25.92 -119.51,36.44 -154.44,123.33 91.92,-27.5 101,-53.32 154.44,-123.33zm-35.97 251.52c4.87,-4.86 70.91,-40.69 101.09,-129.98 -44.99,35.01 -74.84,63.71 -125.11,96.23l24.02 33.75zm500.44 -7.06c11.16,-13.56 -13.64,-157.72 -13.35,-51.66 0.15,50.94 -28.71,102.69 13.35,51.66zm223.44 -56.56c-2.98,111.83 -17.21,74.72 28.27,152.72 0.3,-113.87 17.48,-80.44 -28.27,-152.72zm125.41 0.96l43.92 152c11.97,-113.78 7.97,-91.32 -43.92,-152zm62.22 -155.55c23.01,110.91 63.86,180.67 153.69,247.02 -67.17,-91.79 -94.65,-174.28 -153.69,-247.02zm207.55 96.93zm70.25 -130.24l-70.25 130.24zm70.25 -130.24c74.37,68.51 50.18,66.18 149.61,118.5 -55.28,-75.77 -60.8,-93.42 -149.61,-118.5zm399.93 -153.28c-110.35,-33.74 -214.25,-89.44 -333.57,-91.47 53.36,32.13 99.45,48.45 165.95,76.05 95.94,39.82 66.79,71.32 167.62,15.42zm-396.06 -848.37c101.43,-17.65 114.83,-18.5 149.12,-118.02 -49.45,39.34 -95.23,75.38 -149.12,118.02zm-91.41 -64.16c101.26,-120.51 42.65,11.23 86.91,-118.02 -85.52,36.12 -66.9,2.86 -86.91,118.02zm246.96 -1149.17zm-474.13 971.9l474.13 -971.9zm-474.13 971.9l29.21 -36.49c48.08,-74.05 62.4,-101.12 66.68,-214.96l-56.84 99.81c-12.51,34.99 -27.47,109.8 -39.05,151.64zm-3761.96 535.91l0 448.63c4.13,7.61 7.54,11.33 8.64,24.49l57.86 326.07c75.84,416.24 209.24,810.93 433.44,1179.71 49.74,81.81 103.7,154.49 158.77,246.62 282.04,471.8 837.12,885.76 1349.98,1139.02 681.83,336.7 1177.17,299.55 1297.7,359.29l417.97 0c44.79,-26.75 -6.62,-8.45 76.15,-25.34 281.05,-57.36 169.54,8.24 599.45,-115.98 140.04,-40.47 182.67,-51.74 311.84,-95.16 45.56,-15.32 105.28,-32.74 139.91,-45.97l652.83 -372.38c103.92,-67.86 139.43,-85.06 231.32,-173.15l63.42 -61.16c458.2,-412.68 519.82,-543.22 828.99,-1101.08 121.26,-218.83 148.04,-310.1 229.12,-580.08 83.36,-277.6 86.49,-498.55 125.41,-655.5 1.97,-7.93 6.42,-18.93 8.19,-25.23 1.75,-6.22 4.72,-17 9.01,-24.61l0 -417.78c-39.61,-89.96 -42.71,-283.16 -66.04,-379.29 -201.2,-828.9 -132.83,-526.75 -444.66,-1201.66 -76.73,-166.07 -211.58,-331.61 -327.96,-482.52 -71.77,-93.06 -119.01,-114.92 -207.67,-196.5 -414.13,-381.03 -355.54,-367.55 -959.44,-690.56 -57.09,-30.54 -99.84,-47.69 -147.29,-68.07l-990.95 -254.14c-35.39,-3.68 -49.71,-2.8 -85.78,-9.47 -66.82,-12.38 -36.34,-1.86 -73.62,-24.37l-390.36 0 -705.24 141.1c-250,64.35 -679.3,228.09 -880.46,364.79l-232.1 173.65c-143.17,108.07 -286.03,188.11 -450.25,358.52 -76.83,79.74 -118.54,148.71 -200.93,234.89 -122.09,127.71 -83.14,139.93 -168.69,235.85 -81.03,90.84 -117.97,106.25 -175.35,228.21 -55.85,118.71 -77.56,163.62 -131.34,273.43 -252.95,516.39 -187.57,533.35 -293.07,919.57l-68.8 346.16z"/>
   <path class="fil0" d="M4207.41 3078.12c-0.48,54.95 59,46.3 46.77,-0.12 -11.84,-44.96 -45.98,-90.97 -46.77,0.12z"/>
   <path class="fil0" d="M2778.71 3138.96c2.07,10.15 33.4,6.62 35.17,6.03 1.78,-0.58 51.99,58.44 12.08,-6.9 -8.69,-14.24 -67.3,-97.67 -47.25,0.87z"/>
   <path class="fil0" d="M2997.46 4291.46c-0.96,83.86 89.7,-7.2 31.07,-9.85 -46.8,-2.1 -30.35,-53.06 -31.07,9.85z"/>
  </g>
 </g>
</svg>
