<?xml version="1.0" encoding="UTF-8"?>
<!DOCTYPE svg PUBLIC "-//W3C//DTD SVG 1.1//EN" "http://www.w3.org/Graphics/SVG/1.1/DTD/svg11.dtd">
<!-- Creator: CorelDRAW 2021.5 (評估版本) -->
<svg xmlns="http://www.w3.org/2000/svg" xml:space="preserve" width="70mm" height="70mm" version="1.1" style="shape-rendering:geometricPrecision; text-rendering:geometricPrecision; image-rendering:optimizeQuality; fill-rule:evenodd; clip-rule:evenodd"
viewBox="0 0 7000 7000"
 xmlns:xlink="http://www.w3.org/1999/xlink"
 xmlns:xodm="http://www.corel.com/coreldraw/odm/2003">
 <defs>
  <style type="text/css">
   <![CDATA[
    .fil0 {fill:#EE4745}
    .fil1 {fill:#F59A99}
   ]]>
  </style>
 </defs>
 <g id="圖層_x0020_1">
  <metadata id="CorelCorpID_0Corel-Layer"/>
  <g id="_2964414019520">
   <path class="fil0" d="M3557.73 3228.46c117.8,-58.8 77.41,-57.78 176.77,-328.22l428.77 -1143.95c150.89,-401.27 484.18,-1169.12 570.67,-1568.59 -268.05,-62.6 -596.09,-204.93 -916.49,-174.1 -35.32,447.37 -338.87,3028.54 -259.72,3214.86z"/>
   <path class="fil0" d="M5344.46 3689.83c-226.37,-25.33 -1440.12,-190.04 -1562,-119.48 29.06,36.74 -32.71,39.58 149.16,109.01l1343.64 510.83c280.27,102.22 1339.55,532.71 1533.79,569.27 81.65,-305.9 200.2,-528.24 194.44,-881.03 -222.58,-105.84 -1312.23,-149.78 -1659.03,-188.6z"/>
   <path class="fil0" d="M2557.77 3928.81c113.71,-48.61 630.83,-222 667.81,-347.74 -181.64,-49.83 -2808.68,368.01 -3196.47,436.61 -21.06,400.04 157.75,578.58 222.36,899.15l2306.3 -988.02z"/>
   <path class="fil0" d="M3123.04 7009.28c70.97,-360.92 358.87,-2976.85 327.18,-3226.96 -99.88,36.29 -68.07,26.86 -116.65,152.21 -28.46,73.45 -49.43,135.83 -75.43,204.59l-1021.15 2640.26c139.15,144 657.71,222.56 886.05,229.9z"/>
   <path class="fil0" d="M6906.59 2967.73c8.92,-7.49 40.26,-26.15 43.43,-40.8 2.97,-13.77 10.14,-20.03 15.56,-26.59l-11.16 -75.43c-34.3,-329.45 -147.78,-521.07 -235.39,-770.52 -223.76,60.08 -2906.82,1317.22 -2936.57,1354.92 347.18,95.82 2547.23,-402.64 3124.13,-441.58z"/>
   <path class="fil0" d="M3.7 3074.55c37.3,21.7 12.92,15.09 90.48,37.08l278.9 38.02c138.43,15.67 271,30.56 410.08,47.95 422.84,52.85 2277.09,287.33 2446.93,254.93 -47.34,-132.18 -1958.89,-835.95 -2227.05,-937.53 -259.64,-98.35 -523.67,-232.49 -772.83,-307.18 -99.92,238.88 -198.73,587.87 -226.51,866.73z"/>
   <path class="fil0" d="M2128.43 278.46c39.46,171.16 1219.94,2873.31 1289.33,2954.88 97.86,-137.72 -357.05,-2787.31 -393.67,-3199.08 -221.9,-6.18 -726.18,136.97 -895.66,244.2z"/>
   <path class="fil0" d="M2861.59 4370.09c85.34,-119.5 436.85,-506.3 437.37,-652.61 -135.91,6.05 -536.48,395.36 -626.29,463.91l-1899.23 1457.27c43.19,276.05 418.42,558.4 649.73,700.45l1438.42 -1969.02z"/>
   <path class="fil0" d="M3925.31 4455.23c-81.88,-209.48 -174.13,-586.41 -375.84,-670.33l480.61 3169.24c147.15,66.79 655.5,-121.52 805.68,-189.97 91.67,-41.79 47.36,-18.02 87.54,-54.69 -298.8,-736.58 -718.07,-1538.02 -997.99,-2254.25z"/>
   <path class="fil0" d="M3675.42 3297.11c231.56,-57.79 524.04,-343.4 680.31,-474.17l1533.85 -1263.45c64.44,-54.93 255.45,-221.45 331.45,-251.37 -125.36,-284.37 -269,-363.44 -460.9,-504.59 -88.05,-64.77 -107.53,-103.65 -207.82,-153.39l-1876.89 2646.97z"/>
   <path class="fil0" d="M698.2 1396.9l2249.02 1693.84c72.91,51.41 98.81,71.67 159.27,121.55 105.4,86.92 79.62,101.99 196.04,96.69 -12.66,-123.24 -348.66,-520.34 -452.67,-645.69 -170.95,-206.04 -324.59,-419.22 -513.13,-640.19 -98.53,-115.48 -143.97,-187.95 -247.66,-311.66l-709.56 -902.72c-43.46,-42.67 -17.38,-22.03 -61.32,-56.07 -117.79,62.2 -523.93,447.6 -619.99,644.25z"/>
   <path class="fil0" d="M6350.09 5563.14l-2626.81 -1865.67c39.64,169.14 132.25,274.86 228.31,380.76l1775.69 2153.4c95.25,-44.5 15.67,-1.71 116.26,-70.46 199.45,-136.32 408.07,-395.94 506.55,-598.03z"/>
   <path class="fil1" d="M6906.59 2967.73l84.29 -25.1 -36.46 -117.72 11.16 75.43c-5.42,6.56 -12.59,12.82 -15.56,26.59 -3.17,14.65 -34.51,33.31 -43.43,40.8z"/>
  </g>
 </g>
</svg>
